G04 #@! TF.GenerationSoftware,KiCad,Pcbnew,(5.1.0-218-ge90452d)*
G04 #@! TF.CreationDate,2019-04-22T23:25:45-07:00*
G04 #@! TF.ProjectId,baconbits,6261636f-6e62-4697-9473-2e6b69636164,rev?*
G04 #@! TF.SameCoordinates,Original*
G04 #@! TF.FileFunction,Soldermask,Bot*
G04 #@! TF.FilePolarity,Negative*
%FSLAX46Y46*%
G04 Gerber Fmt 4.6, Leading zero omitted, Abs format (unit mm)*
G04 Created by KiCad (PCBNEW (5.1.0-218-ge90452d)) date 2019-04-22 23:25:45*
%MOMM*%
%LPD*%
G04 APERTURE LIST*
%ADD10C,1.574800*%
%ADD11R,1.574800X1.574800*%
%ADD12C,1.551940*%
%ADD13C,3.050540*%
G04 APERTURE END LIST*
D10*
X170091100Y-116433600D03*
X170091100Y-118973600D03*
X167551100Y-116433600D03*
X167551100Y-118973600D03*
X165011100Y-116433600D03*
X165011100Y-118973600D03*
X162471100Y-116433600D03*
X162471100Y-118973600D03*
X159931100Y-116433600D03*
X159931100Y-118973600D03*
X157391100Y-116433600D03*
X157391100Y-118973600D03*
X154851100Y-116433600D03*
X154851100Y-118973600D03*
X152311100Y-116433600D03*
X152311100Y-118973600D03*
X149771100Y-116433600D03*
X149771100Y-118973600D03*
X147231100Y-116433600D03*
X147231100Y-118973600D03*
X144691100Y-116433600D03*
X144691100Y-118973600D03*
X142151100Y-116433600D03*
X142151100Y-118973600D03*
X139611100Y-116433600D03*
X139611100Y-118973600D03*
X137071100Y-116433600D03*
X137071100Y-118973600D03*
X134531100Y-116433600D03*
X134531100Y-118973600D03*
X131991100Y-116433600D03*
X131991100Y-118973600D03*
X129451100Y-116433600D03*
X129451100Y-118973600D03*
X126911100Y-116433600D03*
D11*
X126911100Y-118973600D03*
D10*
X169291000Y-102235000D03*
X169291000Y-99695000D03*
X169291000Y-97155000D03*
D12*
X132265000Y-109071000D03*
X132265000Y-106531000D03*
X132265000Y-104499000D03*
X132265000Y-101959000D03*
D13*
X129598000Y-112119000D03*
X129598000Y-98403000D03*
D10*
X170091100Y-91033600D03*
X170091100Y-93573600D03*
X167551100Y-91033600D03*
X167551100Y-93573600D03*
X165011100Y-91033600D03*
X165011100Y-93573600D03*
X162471100Y-91033600D03*
X162471100Y-93573600D03*
X159931100Y-91033600D03*
X159931100Y-93573600D03*
X157391100Y-91033600D03*
X157391100Y-93573600D03*
X154851100Y-91033600D03*
X154851100Y-93573600D03*
X152311100Y-91033600D03*
X152311100Y-93573600D03*
X149771100Y-91033600D03*
X149771100Y-93573600D03*
X147231100Y-91033600D03*
X147231100Y-93573600D03*
X144691100Y-91033600D03*
X144691100Y-93573600D03*
X142151100Y-91033600D03*
X142151100Y-93573600D03*
X139611100Y-91033600D03*
X139611100Y-93573600D03*
X137071100Y-91033600D03*
X137071100Y-93573600D03*
X134531100Y-91033600D03*
X134531100Y-93573600D03*
X131991100Y-91033600D03*
X131991100Y-93573600D03*
X129451100Y-91033600D03*
X129451100Y-93573600D03*
X126911100Y-91033600D03*
D11*
X126911100Y-93573600D03*
M02*
