<?xml version="1.0" standalone="no"?>
 <!DOCTYPE svg PUBLIC "-//W3C//DTD SVG 1.1//EN" 
 "http://www.w3.org/Graphics/SVG/1.1/DTD/svg11.dtd"> 
<svg xmlns="http://www.w3.org/2000/svg" version="1.1" 
    width="29.7002cm" height="21.0007cm" viewBox="0 0 116930 82680 ">
<title>SVG Picture created as baconbits-B_SilkS.svg date 2019/04/22 23:37:25 </title>
  <desc>Picture generated by PCBNEW </desc>
<g style="fill:#000000; fill-opacity:1;stroke:#000000; stroke-opacity:1;
stroke-linecap:round; stroke-linejoin:round; "
 transform="translate(0 0) scale(1 1)">
</g>
<g style="fill:#000000; fill-opacity:0.0; 
stroke:#000000; stroke-width:-0.000393701; stroke-opacity:1; 
stroke-linecap:round; stroke-linejoin:round;">
</g>
<g style="fill:#000000; fill-opacity:0.0; 
stroke:#000000; stroke-width:98.4252; stroke-opacity:1; 
stroke-linecap:round; stroke-linejoin:round;">
<path d="M48711 42079
L48973 42079
" />
<path d="M48936 42079
L48955 42061
L48973 42023
L48973 41967
L48955 41929
L48917 41911
L48711 41911
" />
<path d="M48917 41911
L48955 41892
L48973 41854
L48973 41798
L48955 41761
L48917 41742
L48711 41742
" />
<path d="M48673 41648
L48673 41348
" />
<path d="M48973 41292
L48711 41217
L48898 41142
L48711 41067
L48973 40992
" />
<path d="M48022 42483
L48416 42483
" />
<path d="M48172 42445
L48022 42333
" />
<path d="M48284 42333
L48134 42483
" />
<path d="M48022 41995
L48228 41995
L48266 42014
L48284 42051
L48284 42126
L48266 42164
" />
<path d="M48041 41995
L48022 42033
L48022 42126
L48041 42164
L48078 42183
L48116 42183
L48153 42164
L48172 42126
L48172 42033
L48191 41995
" />
<path d="M48416 41639
L48416 41714
L48397 41751
L48378 41770
L48322 41808
L48247 41826
L48097 41826
L48059 41808
L48041 41789
L48022 41751
L48022 41676
L48041 41639
L48059 41620
L48097 41601
L48191 41601
L48228 41620
L48247 41639
L48266 41676
L48266 41751
L48247 41789
L48228 41808
L48191 41826
" />
<path d="M48041 41451
L48022 41414
L48022 41339
L48041 41301
L48078 41283
L48097 41283
L48134 41301
L48153 41339
L48153 41395
L48172 41433
L48209 41451
L48228 41451
L48266 41433
L48284 41395
L48284 41339
L48266 41301
" />
<path d="M48022 41058
L48041 41095
L48059 41114
L48097 41133
L48209 41133
L48247 41114
L48266 41095
L48284 41058
L48284 41001
L48266 40964
L48247 40945
L48209 40926
L48097 40926
L48059 40945
L48041 40964
L48022 41001
L48022 41058
" />
<path d="M48022 40795
L48284 40589
" />
<path d="M48284 40795
L48022 40589
" />
<path d="M59612 40727
L59556 40746
L59537 40765
L59518 40802
L59518 40859
L59537 40896
L59556 40915
L59593 40934
L59743 40934
L59743 40540
L59612 40540
L59574 40559
L59556 40577
L59537 40615
L59537 40652
L59556 40690
L59574 40709
L59612 40727
L59743 40727
" />
<path d="M59181 40934
L59181 40727
L59199 40690
L59237 40671
L59312 40671
L59349 40690
" />
<path d="M59181 40915
L59218 40934
L59312 40934
L59349 40915
L59368 40877
L59368 40840
L59349 40802
L59312 40784
L59218 40784
L59181 40765
" />
<path d="M58824 40915
L58862 40934
L58937 40934
L58974 40915
L58993 40896
L59012 40859
L59012 40746
L58993 40709
L58974 40690
L58937 40671
L58862 40671
L58824 40690
" />
<path d="M58599 40934
L58637 40915
L58656 40896
L58674 40859
L58674 40746
L58656 40709
L58637 40690
L58599 40671
L58543 40671
L58506 40690
L58487 40709
L58468 40746
L58468 40859
L58487 40896
L58506 40915
L58543 40934
L58599 40934
" />
<path d="M58300 40671
L58300 40934
" />
<path d="M58300 40709
L58281 40690
L58243 40671
L58187 40671
L58150 40690
L58131 40727
L58131 40934
" />
<path d="M57812 40727
L57756 40746
L57737 40765
L57718 40802
L57718 40859
L57737 40896
L57756 40915
L57793 40934
L57943 40934
L57943 40540
L57812 40540
L57775 40559
L57756 40577
L57737 40615
L57737 40652
L57756 40690
L57775 40709
L57812 40727
L57943 40727
" />
<path d="M57550 40934
L57550 40671
" />
<path d="M57550 40540
L57568 40559
L57550 40577
L57531 40559
L57550 40540
L57550 40577
" />
<path d="M57418 40671
L57268 40671
" />
<path d="M57362 40540
L57362 40877
L57343 40915
L57306 40934
L57268 40934
" />
<path d="M57156 40915
L57118 40934
L57043 40934
L57006 40915
L56987 40877
L56987 40859
L57006 40821
L57043 40802
L57100 40802
L57137 40784
L57156 40746
L57156 40727
L57137 40690
L57100 40671
L57043 40671
L57006 40690
" />
<path d="M59003 41623
L59134 41435
" />
<path d="M59228 41623
L59228 41229
L59078 41229
L59040 41248
L59021 41266
L59003 41304
L59003 41360
L59021 41398
L59040 41416
L59078 41435
L59228 41435
" />
<path d="M58684 41604
L58721 41623
L58796 41623
L58834 41604
L58853 41566
L58853 41416
L58834 41379
L58796 41360
L58721 41360
L58684 41379
L58665 41416
L58665 41454
L58853 41491
" />
<path d="M58534 41360
L58440 41623
L58346 41360
" />
<path d="M58196 41585
L58178 41604
L58196 41623
L58215 41604
L58196 41585
L58196 41623
" />
<path d="M57728 41266
L57709 41248
L57671 41229
L57578 41229
L57540 41248
L57521 41266
L57503 41304
L57503 41341
L57521 41398
L57746 41623
L57503 41623
" />
<path d="M60193 41918
L60156 41918
L60118 41937
L60099 41955
L60081 41993
L60062 42068
L60062 42162
L60081 42237
L60099 42274
L60118 42293
L60156 42312
L60193 42312
L60231 42293
L60249 42274
L60268 42237
L60287 42162
L60287 42068
L60268 41993
L60249 41955
L60231 41937
L60193 41918
" />
<path d="M59724 42049
L59724 42312
" />
<path d="M59818 41899
L59912 42180
L59668 42180
" />
<path d="M59518 42162
L59218 42162
" />
<path d="M59049 41955
L59031 41937
L58993 41918
L58899 41918
L58862 41937
L58843 41955
L58824 41993
L58824 42030
L58843 42087
L59068 42312
L58824 42312
" />
<path d="M58581 41918
L58543 41918
L58506 41937
L58487 41955
L58468 41993
L58449 42068
L58449 42162
L58468 42237
L58487 42274
L58506 42293
L58543 42312
L58581 42312
L58618 42293
L58637 42274
L58656 42237
L58674 42162
L58674 42068
L58656 41993
L58637 41955
L58618 41937
L58581 41918
" />
<path d="M58281 42162
L57981 42162
" />
<path d="M57812 41955
L57793 41937
L57756 41918
L57662 41918
L57625 41937
L57606 41955
L57587 41993
L57587 42030
L57606 42087
L57831 42312
L57587 42312
" />
<path d="M57343 41918
L57306 41918
L57268 41937
L57250 41955
L57231 41993
L57212 42068
L57212 42162
L57231 42237
L57250 42274
L57268 42293
L57306 42312
L57343 42312
L57381 42293
L57400 42274
L57418 42237
L57437 42162
L57437 42068
L57418 41993
L57400 41955
L57381 41937
L57343 41918
" />
<path d="M56837 42312
L57062 42312
" />
<path d="M56950 42312
L56950 41918
L56987 41974
L57025 42012
L57062 42030
" />
<path d="M56650 42312
L56575 42312
L56537 42293
L56518 42274
L56481 42218
L56462 42143
L56462 41993
L56481 41955
L56500 41937
L56537 41918
L56612 41918
L56650 41937
L56668 41955
L56687 41993
L56687 42087
L56668 42124
L56650 42143
L56612 42162
L56537 42162
L56500 42143
L56481 42124
L56462 42087
" />
</g>
<g style="fill:#000000; fill-opacity:1.0; 
stroke:#000000; stroke-width:3.93701; stroke-opacity:1; 
stroke-linecap:round; stroke-linejoin:round;">
<path style="fill:#000000; fill-opacity:1.0; 
stroke:#000000; stroke-width:3.93701; stroke-opacity:1; 
stroke-linecap:round; stroke-linejoin:round;fill-rule:evenodd;"
d="M 54226,38896
54188,38955
54151,39013
54086,39036
54039,39038
53959,39044
53927,39072
53921,39121
53930,39177
53969,39200
54039,39205
54157,39205
54138,39755
54030,39786
53950,39823
53922,39879
53921,39895
53927,39939
53956,39962
54023,39970
54103,39971
54216,39966
54285,39946
54330,39905
54336,39897
54358,39852
54373,39782
54382,39676
54387,39524
54388,39347
54388,38871
54304,38871
Z" /> 
<path style="fill:#000000; fill-opacity:1.0; 
stroke:#000000; stroke-width:3.93701; stroke-opacity:1; 
stroke-linecap:round; stroke-linejoin:round;fill-rule:evenodd;"
d="M 54777,39052
54664,39092
54643,39106
54565,39201
54510,39332
54490,39466
54493,39506
54502,39544
54523,39569
54570,39583
54656,39591
54794,39597
54815,39597
54961,39603
55052,39612
55100,39625
55116,39647
55115,39664
55073,39719
54983,39760
54861,39783
54725,39783
54713,39782
54555,39763
54555,39971
54796,39970
54934,39963
55059,39945
55144,39922
55249,39844
55322,39724
55361,39579
55367,39426
55353,39356
55121,39356
55104,39385
55045,39400
54931,39404
54921,39405
54815,39399
54742,39386
54721,39371
54747,39315
54809,39255
54880,39212
54914,39205
54992,39225
55067,39274
55115,39333
55121,39356
55353,39356
55338,39281
55274,39161
55185,39086
55064,39048
54919,39037
Z" /> 
<path style="fill:#000000; fill-opacity:1.0; 
stroke:#000000; stroke-width:3.93701; stroke-opacity:1; 
stroke-linecap:round; stroke-linejoin:round;fill-rule:evenodd;"
d="M 58290,39368
58290,39512
58286,39633
58279,39713
58273,39735
58223,39762
58137,39770
58042,39758
57986,39737
57956,39714
57937,39674
57926,39606
57922,39494
57921,39370
57921,39038
57688,39038
57688,39971
57788,39971
57867,39956
57888,39921
57891,39883
57913,39876
57971,39901
58009,39921
58117,39957
58243,39969
58359,39959
58430,39930
58485,39866
58523,39769
58545,39629
58554,39434
58555,39369
58555,39038
58285,39038
Z" /> 
<path style="fill:#000000; fill-opacity:1.0; 
stroke:#000000; stroke-width:3.93701; stroke-opacity:1; 
stroke-linecap:round; stroke-linejoin:round;fill-rule:evenodd;"
d="M 58987,39045
58873,39070
58771,39143
58697,39266
58658,39425
58655,39498
58677,39688
58744,39830
58853,39921
58969,39956
59115,39968
59263,39958
59383,39926
59396,39919
59503,39824
59568,39680
59585,39533
59354,39533
59325,39648
59273,39723
59197,39779
59125,39804
59121,39805
59051,39782
58974,39727
58970,39723
58906,39622
58887,39505
58906,39388
58960,39288
59042,39222
59121,39205
59222,39233
59298,39309
59344,39415
59354,39533
59585,39533
59588,39505
59565,39318
59496,39178
59389,39088
59278,39054
59133,39039
Z" /> 
<path style="fill:#000000; fill-opacity:1.0; 
stroke:#000000; stroke-width:3.93701; stroke-opacity:1; 
stroke-linecap:round; stroke-linejoin:round;fill-rule:evenodd;"
d="M 59933,39055
59900,39087
59879,39119
59841,39108
59810,39087
59717,39040
59652,39048
59622,39109
59621,39131
59634,39200
59684,39240
59730,39256
59838,39288
59857,39971
60088,39971
60088,39038
60003,39038
Z" /> 
<path style="fill:#000000; fill-opacity:1.0; 
stroke:#000000; stroke-width:3.93701; stroke-opacity:1; 
stroke-linecap:round; stroke-linejoin:round;fill-rule:evenodd;"
d="M 53238,39031
53151,39053
53110,39088
53095,39155
53094,39161
53091,39232
53112,39254
53176,39241
53194,39236
53354,39207
53491,39216
53572,39251
53612,39304
53595,39352
53527,39388
53418,39404
53403,39405
53233,39421
53118,39472
53053,39559
53052,39562
53031,39682
53050,39801
53103,39895
53131,39919
53220,39955
53344,39980
53473,39991
53571,39984
53661,39964
53713,39953
53768,39924
53787,39857
53788,39834
53781,39764
53755,39747
53730,39754
53663,39771
53560,39788
53503,39794
53372,39794
53291,39762
53265,39701
53274,39659
53307,39624
53382,39608
53470,39605
53634,39587
53745,39531
53806,39435
53821,39321
53811,39215
53775,39145
53738,39111
53623,39054
53468,39023
53299,39023
Z" /> 
<path style="fill:#000000; fill-opacity:1.0; 
stroke:#000000; stroke-width:3.93701; stroke-opacity:1; 
stroke-linecap:round; stroke-linejoin:round;fill-rule:evenodd;"
d="M 55621,38695
55540,38725
55504,38774
55494,38836
55493,38910
55513,38932
55531,38928
55685,38891
55851,38884
56009,38905
56138,38953
56202,39002
56274,39127
56302,39280
56287,39439
56231,39585
56156,39680
56073,39740
55982,39766
55887,39771
55721,39771
55721,39371
55488,39371
55488,39652
55490,39792
55497,39880
55513,39927
55540,39948
55546,39950
55668,39972
55818,39984
55963,39985
56058,39974
56248,39911
56390,39806
56486,39655
56538,39455
56547,39371
56541,39152
56486,38977
56383,38843
56284,38773
56140,38717
55961,38683
55778,38675
Z" /> 
<path style="fill:#000000; fill-opacity:1.0; 
stroke:#000000; stroke-width:3.93701; stroke-opacity:1; 
stroke-linecap:round; stroke-linejoin:round;fill-rule:evenodd;"
d="M 60488,38680
60346,38706
60264,38736
60228,38777
60221,38843
60227,38913
60256,38932
60296,38925
60529,38879
60722,38884
60872,38939
60978,39042
61039,39193
61054,39350
61051,39466
61032,39543
60989,39607
60941,39658
60861,39728
60786,39762
60683,39771
60659,39771
60491,39771
60471,39388
60238,39388
60228,39644
60225,39778
60231,39860
60248,39907
60278,39932
60364,39958
60490,39977
60631,39985
60760,39982
60821,39974
61007,39915
61143,39820
61236,39680
61296,39489
61315,39271
61281,39076
61196,38911
61067,38785
60897,38707
60700,38675
Z" /> 
<path style="fill:#000000; fill-opacity:1.0; 
stroke:#000000; stroke-width:3.93701; stroke-opacity:1; 
stroke-linecap:round; stroke-linejoin:round;fill-rule:evenodd;"
d="M 62590,38613
62415,38707
62369,38745
62287,38828
62219,38918
62174,38999
62164,39054
62169,39063
62197,39070
62198,39068
62220,39035
62265,38964
62295,38917
62421,38776
62579,38685
62754,38643
62935,38652
63109,38709
63262,38815
63361,38934
63415,39027
63443,39108
63451,39203
63448,39307
63438,39426
63418,39514
63376,39598
63305,39703
63281,39735
63189,39874
63126,40002
63104,40074
63082,40205
62555,40205
62534,40074
62497,39962
62421,39826
62368,39749
62296,39651
62244,39573
62222,39531
62222,39530
62196,39505
62188,39505
62159,39516
62165,39555
62207,39629
62290,39744
62305,39764
62405,39916
62461,40047
62476,40118
62497,40271
63145,40271
63167,40116
63210,39967
63303,39812
63319,39791
63423,39644
63485,39519
63515,39393
63520,39277
63490,39074
63409,38899
63287,38757
63133,38652
62959,38591
62775,38576
Z" /> 
<path style="fill:#000000; fill-opacity:1.0; 
stroke:#000000; stroke-width:3.93701; stroke-opacity:1; 
stroke-linecap:round; stroke-linejoin:round;fill-rule:evenodd;"
d="M 56785,39163
56730,39234
56700,39304
56689,39399
56688,39480
56708,39677
56768,39822
56871,39917
57018,39962
57163,39965
57321,39955
57321,40146
57321,40338
57556,40338
57547,39696
57544,39482
57321,39482
57318,39604
57311,39699
57300,39747
57299,39749
57254,39763
57171,39771
57151,39771
57046,39756
56979,39705
56973,39697
56925,39585
56919,39465
56951,39355
57015,39271
57106,39233
57106,39233
57212,39226
57276,39238
57308,39282
57320,39370
57321,39482
57544,39482
57538,39055
56882,39055
Z" /> 
<path style="fill:#000000; fill-opacity:1.0; 
stroke:#000000; stroke-width:3.93701; stroke-opacity:1; 
stroke-linecap:round; stroke-linejoin:round;fill-rule:evenodd;"
d="M 61628,39280
61639,39370
61665,39414
61718,39430
61727,39431
61805,39464
61850,39540
61868,39614
61845,39661
61803,39692
61745,39734
61727,39772
61747,39827
61788,39897
61834,39966
61872,39987
61927,39969
61950,39957
62020,39927
62067,39937
62121,39988
62171,40047
62176,40092
62142,40153
62109,40210
62115,40247
62167,40287
62195,40304
62296,40357
62359,40366
62395,40331
62401,40318
62423,40170
62380,40011
62304,39883
62225,39767
62153,39647
62122,39588
62058,39455
62439,39445
62821,39436
62821,39138
62219,39138
61617,39138
Z" /> 
<path style="fill:#000000; fill-opacity:1.0; 
stroke:#000000; stroke-width:3.93701; stroke-opacity:1; 
stroke-linecap:round; stroke-linejoin:round;fill-rule:evenodd;"
d="M 62729,38091
62683,38109
62666,38154
62661,38193
62641,38272
62588,38309
62561,38316
62481,38314
62417,38262
62410,38252
62348,38170
62220,38243
62142,38290
62112,38326
62121,38371
62138,38406
62167,38474
62155,38520
62120,38556
62065,38616
62067,38661
62128,38711
62136,38717
62184,38744
62228,38746
62286,38720
62379,38660
62384,38657
62590,38554
62800,38514
63004,38534
63195,38610
63361,38742
63493,38926
63499,38938
63554,39057
63579,39157
63581,39272
63578,39323
63564,39447
63535,39553
63484,39662
63402,39791
63337,39883
63246,40051
63219,40208
63241,40318
63274,40362
63330,40363
63422,40319
63447,40304
63516,40259
63536,40223
63515,40176
63501,40153
63466,40092
63472,40047
63521,39988
63578,39935
63626,39928
63692,39957
63757,39985
63797,39977
63838,39923
63854,39897
63903,39812
63915,39763
63888,39726
63839,39692
63785,39646
63776,39595
63793,39538
63832,39465
63894,39439
63924,39438
63984,39433
64012,39407
64021,39342
64021,39288
64018,39196
64002,39152
63959,39139
63922,39138
63850,39127
63811,39081
63795,39030
63782,38948
63804,38899
63835,38874
63891,38836
63914,38820
63910,38787
63882,38722
63842,38649
63803,38591
63779,38571
63729,38586
63682,38607
63624,38624
63566,38596
63536,38570
63484,38512
63479,38464
63504,38405
63530,38347
63522,38309
63471,38270
63422,38243
63294,38170
63233,38252
63169,38311
63092,38318
63081,38316
63014,38287
62985,38224
62981,38193
62971,38128
62942,38098
62876,38088
62821,38088
Z" /> 
<path style="fill:#000000; fill-opacity:1.0; 
stroke:#000000; stroke-width:3.93701; stroke-opacity:1; 
stroke-linecap:round; stroke-linejoin:round;fill-rule:evenodd;"
d="M 62630,40310
62502,40326
62439,40349
62393,40395
62399,40428
62459,40451
62577,40465
62757,40471
62821,40471
63023,40468
63160,40458
63231,40441
63241,40433
63245,40381
63185,40342
63063,40316
62880,40305
62821,40305
Z" /> 
<path style="fill:#000000; fill-opacity:1.0; 
stroke:#000000; stroke-width:3.93701; stroke-opacity:1; 
stroke-linecap:round; stroke-linejoin:round;fill-rule:evenodd;"
d="M 62631,40541
62501,40550
62424,40568
62395,40596
62408,40636
62422,40656
62459,40679
62530,40694
62647,40702
62819,40704
62821,40705
62994,40702
63111,40694
63183,40679
63220,40656
63220,40656
63247,40610
63235,40577
63178,40556
63070,40543
62905,40538
62821,40538
Z" /> 
<path style="fill:#000000; fill-opacity:1.0; 
stroke:#000000; stroke-width:3.93701; stroke-opacity:1; 
stroke-linecap:round; stroke-linejoin:round;fill-rule:evenodd;"
d="M 62812,40744
62702,40753
62613,40769
62566,40790
62563,40794
62579,40839
62643,40879
62740,40907
62853,40918
62927,40913
63012,40885
63067,40838
63077,40787
63065,40768
63015,40751
62924,40743
Z" /> 
<g >
</g>
</g> 
</svg>
