M48
; DRILL file {KiCad (5.1.0-218-ge90452d)} date Mon 22 Apr 2019 11:25:39 PM PDT
; FORMAT={-:-/ absolute / inch / decimal}
; #@! TF.CreationDate,2019-04-22T23:25:39-07:00
; #@! TF.GenerationSoftware,Kicad,Pcbnew,(5.1.0-218-ge90452d)
; #@! TF.FileFunction,Plated,1,2,PTH
FMAT,2
INCH
T1C0.0157
T2C0.0300
T3C0.0350
T4C0.0394
T5C0.0906
%
G90
G05
T1
X5.2565Y-4.3645
X5.3512Y-3.9004
X5.352Y-3.783
X5.374Y-3.9475
X5.3757Y-4.4623
X5.381Y-4.1993
X5.3872Y-4.1145
X5.397Y-4.25
X5.4143Y-4.4623
X5.4365Y-4.2645
X5.4475Y-3.8185
X5.454Y-4.4155
X5.4605Y-4.234
X5.4847Y-4.0921
X5.4847Y-4.1433
X5.535Y-4.0921
X5.535Y-4.1433
X5.6295Y-4.0705
X5.6385Y-4.5035
X5.9455Y-4.4855
X5.987Y-4.1145
X6.063Y-3.749
X6.121Y-3.879
X6.156Y-4.521
X6.262Y-4.006
X6.2718Y-4.399
X6.2815Y-4.2765
X6.293Y-3.877
X6.3025Y-4.325
X6.335Y-4.4913
X6.341Y-3.996
X6.355Y-3.877
X6.36Y-4.1745
X6.364Y-4.415
X6.399Y-4.49
X6.423Y-4.2146
X6.4258Y-4.1613
X6.4342Y-4.1247
X6.4445Y-4.0575
X6.445Y-4.005
X6.4558Y-4.3254
X6.4558Y-4.3746
X6.467Y-4.225
X6.468Y-3.877
X6.489Y-4.032
X6.505Y-4.3254
X6.505Y-4.3746
X6.5071Y-4.2247
X6.524Y-4.481
X6.5885Y-4.198
X6.596Y-4.3365
X6.605Y-4.28
X6.623Y-4.389
X6.631Y-4.449
X6.635Y-4.255
X6.708Y-4.2785
X6.7565Y-4.1995
X6.7565Y-4.2445
X6.7565Y-4.4445
X6.7565Y-4.4895
X6.7865Y-4.1995
X6.7865Y-4.2445
X6.7865Y-4.4445
X6.7865Y-4.4895
X6.8565Y-4.1795
X6.8565Y-4.2095
X6.8565Y-4.2795
X6.8565Y-4.3095
X6.8565Y-4.3745
X6.8565Y-4.4045
X6.8565Y-4.4795
X6.8565Y-4.5095
X6.8865Y-4.1795
X6.8865Y-4.2095
X6.8865Y-4.2795
X6.8865Y-4.3095
X6.8865Y-4.3745
X6.8865Y-4.4045
X6.8865Y-4.4795
X6.8865Y-4.5095
T2
X6.665Y-3.825
X6.665Y-3.925
X6.665Y-4.025
T3
X4.9965Y-4.584
X4.9965Y-4.684
X5.0965Y-4.584
X5.0965Y-4.684
X5.1965Y-4.584
X5.1965Y-4.684
X5.2965Y-4.584
X5.2965Y-4.684
X5.3965Y-4.584
X5.3965Y-4.684
X5.4965Y-4.584
X5.4965Y-4.684
X5.5965Y-4.584
X5.5965Y-4.684
X5.6965Y-4.584
X5.6965Y-4.684
X5.7965Y-4.584
X5.7965Y-4.684
X5.8965Y-4.584
X5.8965Y-4.684
X5.9965Y-4.584
X5.9965Y-4.684
X6.0965Y-4.584
X6.0965Y-4.684
X6.1965Y-4.584
X6.1965Y-4.684
X6.2965Y-4.584
X6.2965Y-4.684
X6.3965Y-4.584
X6.3965Y-4.684
X6.4965Y-4.584
X6.4965Y-4.684
X6.5965Y-4.584
X6.5965Y-4.684
X6.6965Y-4.584
X6.6965Y-4.684
X4.9965Y-3.584
X4.9965Y-3.684
X5.0965Y-3.584
X5.0965Y-3.684
X5.1965Y-3.584
X5.1965Y-3.684
X5.2965Y-3.584
X5.2965Y-3.684
X5.3965Y-3.584
X5.3965Y-3.684
X5.4965Y-3.584
X5.4965Y-3.684
X5.5965Y-3.584
X5.5965Y-3.684
X5.6965Y-3.584
X5.6965Y-3.684
X5.7965Y-3.584
X5.7965Y-3.684
X5.8965Y-3.584
X5.8965Y-3.684
X5.9965Y-3.584
X5.9965Y-3.684
X6.0965Y-3.584
X6.0965Y-3.684
X6.1965Y-3.584
X6.1965Y-3.684
X6.2965Y-3.584
X6.2965Y-3.684
X6.3965Y-3.584
X6.3965Y-3.684
X6.4965Y-3.584
X6.4965Y-3.684
X6.5965Y-3.584
X6.5965Y-3.684
X6.6965Y-3.584
X6.6965Y-3.684
T4
X5.2073Y-4.0141
X5.2073Y-4.1141
X5.2073Y-4.1941
X5.2073Y-4.2941
T5
X5.1023Y-3.8741
X5.1023Y-4.4141
T0
M30
