G04 #@! TF.GenerationSoftware,KiCad,Pcbnew,(5.1.0-218-ge90452d)*
G04 #@! TF.CreationDate,2019-04-22T23:25:45-07:00*
G04 #@! TF.ProjectId,baconbits,6261636f-6e62-4697-9473-2e6b69636164,rev?*
G04 #@! TF.SameCoordinates,Original*
G04 #@! TF.FileFunction,Legend,Top*
G04 #@! TF.FilePolarity,Positive*
%FSLAX46Y46*%
G04 Gerber Fmt 4.6, Leading zero omitted, Abs format (unit mm)*
G04 Created by KiCad (PCBNEW (5.1.0-218-ge90452d)) date 2019-04-22 23:25:45*
%MOMM*%
%LPD*%
G04 APERTURE LIST*
%ADD10C,0.100000*%
%ADD11C,0.254000*%
%ADD12C,0.200000*%
%ADD13C,0.300000*%
%ADD14C,0.097536*%
%ADD15C,0.150000*%
%ADD16C,0.120000*%
%ADD17C,0.203200*%
%ADD18C,0.152400*%
%ADD19C,0.127000*%
%ADD20C,0.038100*%
%ADD21C,0.125000*%
%ADD22C,0.025400*%
G04 APERTURE END LIST*
D10*
G36*
X147332700Y-102019100D02*
G01*
X146037300Y-102019100D01*
X146037300Y-99377500D01*
X147332700Y-99377500D01*
X147332700Y-102019100D01*
G37*
X147332700Y-102019100D02*
X146037300Y-102019100D01*
X146037300Y-99377500D01*
X147332700Y-99377500D01*
X147332700Y-102019100D01*
G36*
X151625300Y-103746300D02*
G01*
X150888700Y-103746300D01*
X150888700Y-102069900D01*
X151625300Y-102069900D01*
X151625300Y-103746300D01*
G37*
X151625300Y-103746300D02*
X150888700Y-103746300D01*
X150888700Y-102069900D01*
X151625300Y-102069900D01*
X151625300Y-103746300D01*
G36*
X150126700Y-102019100D02*
G01*
X148831300Y-102019100D01*
X148831300Y-99377500D01*
X150126700Y-99377500D01*
X150126700Y-102019100D01*
G37*
X150126700Y-102019100D02*
X148831300Y-102019100D01*
X148831300Y-99377500D01*
X150126700Y-99377500D01*
X150126700Y-102019100D01*
G36*
X145300700Y-103720900D02*
G01*
X144564100Y-103720900D01*
X144564100Y-102044500D01*
X145300700Y-102044500D01*
X145300700Y-103720900D01*
G37*
X145300700Y-103720900D02*
X144564100Y-103720900D01*
X144564100Y-102044500D01*
X145300700Y-102044500D01*
X145300700Y-103720900D01*
G36*
X145275300Y-99352100D02*
G01*
X144538700Y-99352100D01*
X144538700Y-97675700D01*
X145275300Y-97675700D01*
X145275300Y-99352100D01*
G37*
X145275300Y-99352100D02*
X144538700Y-99352100D01*
X144538700Y-97675700D01*
X145275300Y-97675700D01*
X145275300Y-99352100D01*
G36*
X151599900Y-99326700D02*
G01*
X150863300Y-99326700D01*
X150863300Y-97650300D01*
X151599900Y-97650300D01*
X151599900Y-99326700D01*
G37*
X151599900Y-99326700D02*
X150863300Y-99326700D01*
X150863300Y-97650300D01*
X151599900Y-97650300D01*
X151599900Y-99326700D01*
G36*
X150126700Y-110629700D02*
G01*
X148831300Y-110629700D01*
X148831300Y-107988100D01*
X150126700Y-107988100D01*
X150126700Y-110629700D01*
G37*
X150126700Y-110629700D02*
X148831300Y-110629700D01*
X148831300Y-107988100D01*
X150126700Y-107988100D01*
X150126700Y-110629700D01*
G36*
X147332700Y-110629700D02*
G01*
X146037300Y-110629700D01*
X146037300Y-107988100D01*
X147332700Y-107988100D01*
X147332700Y-110629700D01*
G37*
X147332700Y-110629700D02*
X146037300Y-110629700D01*
X146037300Y-107988100D01*
X147332700Y-107988100D01*
X147332700Y-110629700D01*
G36*
X145300700Y-112331500D02*
G01*
X144564100Y-112331500D01*
X144564100Y-110655100D01*
X145300700Y-110655100D01*
X145300700Y-112331500D01*
G37*
X145300700Y-112331500D02*
X144564100Y-112331500D01*
X144564100Y-110655100D01*
X145300700Y-110655100D01*
X145300700Y-112331500D01*
G36*
X145275300Y-107962700D02*
G01*
X144538700Y-107962700D01*
X144538700Y-106286300D01*
X145275300Y-106286300D01*
X145275300Y-107962700D01*
G37*
X145275300Y-107962700D02*
X144538700Y-107962700D01*
X144538700Y-106286300D01*
X145275300Y-106286300D01*
X145275300Y-107962700D01*
G36*
X151625300Y-112356900D02*
G01*
X150888700Y-112356900D01*
X150888700Y-110680500D01*
X151625300Y-110680500D01*
X151625300Y-112356900D01*
G37*
X151625300Y-112356900D02*
X150888700Y-112356900D01*
X150888700Y-110680500D01*
X151625300Y-110680500D01*
X151625300Y-112356900D01*
G36*
X151599900Y-107937300D02*
G01*
X150863300Y-107937300D01*
X150863300Y-106260900D01*
X151599900Y-106260900D01*
X151599900Y-107937300D01*
G37*
X151599900Y-107937300D02*
X150863300Y-107937300D01*
X150863300Y-106260900D01*
X151599900Y-106260900D01*
X151599900Y-107937300D01*
D11*
X153492804Y-94706319D02*
X153492804Y-95528795D01*
X153541185Y-95625557D01*
X153589566Y-95673938D01*
X153686328Y-95722319D01*
X153879852Y-95722319D01*
X153976614Y-95673938D01*
X154024995Y-95625557D01*
X154073376Y-95528795D01*
X154073376Y-94706319D01*
X154508804Y-95673938D02*
X154653947Y-95722319D01*
X154895852Y-95722319D01*
X154992614Y-95673938D01*
X155040995Y-95625557D01*
X155089376Y-95528795D01*
X155089376Y-95432033D01*
X155040995Y-95335271D01*
X154992614Y-95286890D01*
X154895852Y-95238509D01*
X154702328Y-95190128D01*
X154605566Y-95141747D01*
X154557185Y-95093366D01*
X154508804Y-94996604D01*
X154508804Y-94899842D01*
X154557185Y-94803080D01*
X154605566Y-94754700D01*
X154702328Y-94706319D01*
X154944233Y-94706319D01*
X155089376Y-94754700D01*
X156105376Y-95722319D02*
X155766709Y-95238509D01*
X155524804Y-95722319D02*
X155524804Y-94706319D01*
X155911852Y-94706319D01*
X156008614Y-94754700D01*
X156056995Y-94803080D01*
X156105376Y-94899842D01*
X156105376Y-95044985D01*
X156056995Y-95141747D01*
X156008614Y-95190128D01*
X155911852Y-95238509D01*
X155524804Y-95238509D01*
X162930719Y-95747719D02*
X162592052Y-95263909D01*
X162350147Y-95747719D02*
X162350147Y-94731719D01*
X162737195Y-94731719D01*
X162833957Y-94780100D01*
X162882338Y-94828480D01*
X162930719Y-94925242D01*
X162930719Y-95070385D01*
X162882338Y-95167147D01*
X162833957Y-95215528D01*
X162737195Y-95263909D01*
X162350147Y-95263909D01*
X163317766Y-95699338D02*
X163462909Y-95747719D01*
X163704814Y-95747719D01*
X163801576Y-95699338D01*
X163849957Y-95650957D01*
X163898338Y-95554195D01*
X163898338Y-95457433D01*
X163849957Y-95360671D01*
X163801576Y-95312290D01*
X163704814Y-95263909D01*
X163511290Y-95215528D01*
X163414528Y-95167147D01*
X163366147Y-95118766D01*
X163317766Y-95022004D01*
X163317766Y-94925242D01*
X163366147Y-94828480D01*
X163414528Y-94780100D01*
X163511290Y-94731719D01*
X163753195Y-94731719D01*
X163898338Y-94780100D01*
X164188623Y-94731719D02*
X164769195Y-94731719D01*
X164478909Y-95747719D02*
X164478909Y-94731719D01*
X157662033Y-95722319D02*
X157662033Y-94706319D01*
X158049080Y-94706319D01*
X158145842Y-94754700D01*
X158194223Y-94803080D01*
X158242604Y-94899842D01*
X158242604Y-95044985D01*
X158194223Y-95141747D01*
X158145842Y-95190128D01*
X158049080Y-95238509D01*
X157662033Y-95238509D01*
X158581271Y-94706319D02*
X158823176Y-95722319D01*
X159016700Y-94996604D01*
X159210223Y-95722319D01*
X159452128Y-94706319D01*
X160419747Y-95722319D02*
X160081080Y-95238509D01*
X159839176Y-95722319D02*
X159839176Y-94706319D01*
X160226223Y-94706319D01*
X160322985Y-94754700D01*
X160371366Y-94803080D01*
X160419747Y-94899842D01*
X160419747Y-95044985D01*
X160371366Y-95141747D01*
X160322985Y-95190128D01*
X160226223Y-95238509D01*
X159839176Y-95238509D01*
D12*
X148094700Y-97650300D02*
X148094700Y-99352100D01*
X148094700Y-102044500D02*
X148094700Y-103746300D01*
X148094700Y-106260900D02*
X148094700Y-107962700D01*
X148094700Y-110655100D02*
X148094700Y-112356900D01*
X146037300Y-102044500D02*
X146037300Y-99352100D01*
X144538700Y-102044500D02*
X144538700Y-99352100D01*
X144538700Y-103746300D02*
X144538700Y-102044500D01*
X151625300Y-99352100D02*
X144538700Y-99352100D01*
X151625300Y-102044500D02*
X151625300Y-99352100D01*
X144538700Y-99352100D02*
X144538700Y-97650300D01*
X151625300Y-97650300D02*
X151625300Y-99352100D01*
X148831300Y-102044500D02*
X148831300Y-99352100D01*
X151625300Y-102044500D02*
X151625300Y-103746300D01*
X144538700Y-97650300D02*
X151625300Y-97650300D01*
X151625300Y-103746300D02*
X144538700Y-103746300D01*
X150126700Y-102044500D02*
X150126700Y-99352100D01*
X147332700Y-102044500D02*
X147332700Y-99352100D01*
X144538700Y-102044500D02*
X151625300Y-102044500D01*
X151625300Y-110655100D02*
X151625300Y-107962700D01*
X150126700Y-110655100D02*
X150126700Y-107962700D01*
X148831300Y-110655100D02*
X148831300Y-107962700D01*
X147332700Y-110655100D02*
X147332700Y-107962700D01*
X146037300Y-110655100D02*
X146037300Y-107962700D01*
X144538700Y-110655100D02*
X144538700Y-107962700D01*
X144538700Y-107962700D02*
X144538700Y-106260900D01*
X151625300Y-106260900D02*
X151625300Y-107962700D01*
X151625300Y-107962700D02*
X144538700Y-107962700D01*
X144538700Y-106260900D02*
X151625300Y-106260900D01*
X144538700Y-112356900D02*
X144538700Y-110655100D01*
X151625300Y-112356900D02*
X144538700Y-112356900D01*
X151625300Y-110655100D02*
X151625300Y-112356900D01*
X144538700Y-110655100D02*
X151625300Y-110655100D01*
D13*
X144219385Y-89113442D02*
X144076528Y-89184871D01*
X143790814Y-89184871D01*
X143647957Y-89113442D01*
X143576528Y-88970585D01*
X143576528Y-88399157D01*
X143647957Y-88256300D01*
X143790814Y-88184871D01*
X144076528Y-88184871D01*
X144219385Y-88256300D01*
X144290814Y-88399157D01*
X144290814Y-88542014D01*
X143576528Y-88684871D01*
X144933671Y-88613442D02*
X146076528Y-88613442D01*
X147433671Y-89184871D02*
X147433671Y-88399157D01*
X147362242Y-88256300D01*
X147219385Y-88184871D01*
X146933671Y-88184871D01*
X146790814Y-88256300D01*
X147433671Y-89113442D02*
X147290814Y-89184871D01*
X146933671Y-89184871D01*
X146790814Y-89113442D01*
X146719385Y-88970585D01*
X146719385Y-88827728D01*
X146790814Y-88684871D01*
X146933671Y-88613442D01*
X147290814Y-88613442D01*
X147433671Y-88542014D01*
X148362242Y-89184871D02*
X148219385Y-89113442D01*
X148147957Y-88970585D01*
X148147957Y-87684871D01*
X149505100Y-89113442D02*
X149362242Y-89184871D01*
X149076528Y-89184871D01*
X148933671Y-89113442D01*
X148862242Y-88970585D01*
X148862242Y-88399157D01*
X148933671Y-88256300D01*
X149076528Y-88184871D01*
X149362242Y-88184871D01*
X149505100Y-88256300D01*
X149576528Y-88399157D01*
X149576528Y-88542014D01*
X148862242Y-88684871D01*
X150219385Y-89042014D02*
X150290814Y-89113442D01*
X150219385Y-89184871D01*
X150147957Y-89113442D01*
X150219385Y-89042014D01*
X150219385Y-89184871D01*
X151147957Y-89184871D02*
X151005100Y-89113442D01*
X150933671Y-89042014D01*
X150862242Y-88899157D01*
X150862242Y-88470585D01*
X150933671Y-88327728D01*
X151005100Y-88256300D01*
X151147957Y-88184871D01*
X151362242Y-88184871D01*
X151505100Y-88256300D01*
X151576528Y-88327728D01*
X151647957Y-88470585D01*
X151647957Y-88899157D01*
X151576528Y-89042014D01*
X151505100Y-89113442D01*
X151362242Y-89184871D01*
X151147957Y-89184871D01*
X152290814Y-89184871D02*
X152290814Y-88184871D01*
X152290814Y-88470585D02*
X152362242Y-88327728D01*
X152433671Y-88256300D01*
X152576528Y-88184871D01*
X152719385Y-88184871D01*
X153862242Y-88184871D02*
X153862242Y-89399157D01*
X153790814Y-89542014D01*
X153719385Y-89613442D01*
X153576528Y-89684871D01*
X153362242Y-89684871D01*
X153219385Y-89613442D01*
X153862242Y-89113442D02*
X153719385Y-89184871D01*
X153433671Y-89184871D01*
X153290814Y-89113442D01*
X153219385Y-89042014D01*
X153147957Y-88899157D01*
X153147957Y-88470585D01*
X153219385Y-88327728D01*
X153290814Y-88256300D01*
X153433671Y-88184871D01*
X153719385Y-88184871D01*
X153862242Y-88256300D01*
X140225462Y-121048317D02*
X140439748Y-121119745D01*
X140511177Y-121191174D01*
X140582605Y-121334031D01*
X140582605Y-121548317D01*
X140511177Y-121691174D01*
X140439748Y-121762602D01*
X140296891Y-121834031D01*
X139725462Y-121834031D01*
X139725462Y-120334031D01*
X140225462Y-120334031D01*
X140368320Y-120405460D01*
X140439748Y-120476888D01*
X140511177Y-120619745D01*
X140511177Y-120762602D01*
X140439748Y-120905460D01*
X140368320Y-120976888D01*
X140225462Y-121048317D01*
X139725462Y-121048317D01*
X141868320Y-121834031D02*
X141868320Y-121048317D01*
X141796891Y-120905460D01*
X141654034Y-120834031D01*
X141368320Y-120834031D01*
X141225462Y-120905460D01*
X141868320Y-121762602D02*
X141725462Y-121834031D01*
X141368320Y-121834031D01*
X141225462Y-121762602D01*
X141154034Y-121619745D01*
X141154034Y-121476888D01*
X141225462Y-121334031D01*
X141368320Y-121262602D01*
X141725462Y-121262602D01*
X141868320Y-121191174D01*
X143225462Y-121762602D02*
X143082605Y-121834031D01*
X142796891Y-121834031D01*
X142654034Y-121762602D01*
X142582605Y-121691174D01*
X142511177Y-121548317D01*
X142511177Y-121119745D01*
X142582605Y-120976888D01*
X142654034Y-120905460D01*
X142796891Y-120834031D01*
X143082605Y-120834031D01*
X143225462Y-120905460D01*
X144082605Y-121834031D02*
X143939748Y-121762602D01*
X143868320Y-121691174D01*
X143796891Y-121548317D01*
X143796891Y-121119745D01*
X143868320Y-120976888D01*
X143939748Y-120905460D01*
X144082605Y-120834031D01*
X144296891Y-120834031D01*
X144439748Y-120905460D01*
X144511177Y-120976888D01*
X144582605Y-121119745D01*
X144582605Y-121548317D01*
X144511177Y-121691174D01*
X144439748Y-121762602D01*
X144296891Y-121834031D01*
X144082605Y-121834031D01*
X145225462Y-120834031D02*
X145225462Y-121834031D01*
X145225462Y-120976888D02*
X145296891Y-120905460D01*
X145439748Y-120834031D01*
X145654034Y-120834031D01*
X145796891Y-120905460D01*
X145868320Y-121048317D01*
X145868320Y-121834031D01*
X147082605Y-121048317D02*
X147296891Y-121119745D01*
X147368320Y-121191174D01*
X147439748Y-121334031D01*
X147439748Y-121548317D01*
X147368320Y-121691174D01*
X147296891Y-121762602D01*
X147154034Y-121834031D01*
X146582605Y-121834031D01*
X146582605Y-120334031D01*
X147082605Y-120334031D01*
X147225462Y-120405460D01*
X147296891Y-120476888D01*
X147368320Y-120619745D01*
X147368320Y-120762602D01*
X147296891Y-120905460D01*
X147225462Y-120976888D01*
X147082605Y-121048317D01*
X146582605Y-121048317D01*
X148082605Y-121834031D02*
X148082605Y-120834031D01*
X148082605Y-120334031D02*
X148011177Y-120405460D01*
X148082605Y-120476888D01*
X148154034Y-120405460D01*
X148082605Y-120334031D01*
X148082605Y-120476888D01*
X148582605Y-120834031D02*
X149154034Y-120834031D01*
X148796891Y-120334031D02*
X148796891Y-121619745D01*
X148868320Y-121762602D01*
X149011177Y-121834031D01*
X149154034Y-121834031D01*
X149582605Y-121762602D02*
X149725462Y-121834031D01*
X150011177Y-121834031D01*
X150154034Y-121762602D01*
X150225462Y-121619745D01*
X150225462Y-121548317D01*
X150154034Y-121405460D01*
X150011177Y-121334031D01*
X149796891Y-121334031D01*
X149654034Y-121262602D01*
X149582605Y-121119745D01*
X149582605Y-121048317D01*
X149654034Y-120905460D01*
X149796891Y-120834031D01*
X150011177Y-120834031D01*
X150154034Y-120905460D01*
X152868320Y-121834031D02*
X152368320Y-121119745D01*
X152011177Y-121834031D02*
X152011177Y-120334031D01*
X152582605Y-120334031D01*
X152725462Y-120405460D01*
X152796891Y-120476888D01*
X152868320Y-120619745D01*
X152868320Y-120834031D01*
X152796891Y-120976888D01*
X152725462Y-121048317D01*
X152582605Y-121119745D01*
X152011177Y-121119745D01*
X154082605Y-121762602D02*
X153939748Y-121834031D01*
X153654034Y-121834031D01*
X153511177Y-121762602D01*
X153439748Y-121619745D01*
X153439748Y-121048317D01*
X153511177Y-120905460D01*
X153654034Y-120834031D01*
X153939748Y-120834031D01*
X154082605Y-120905460D01*
X154154034Y-121048317D01*
X154154034Y-121191174D01*
X153439748Y-121334031D01*
X154654034Y-120834031D02*
X155011177Y-121834031D01*
X155368320Y-120834031D01*
X155939748Y-121691174D02*
X156011177Y-121762602D01*
X155939748Y-121834031D01*
X155868320Y-121762602D01*
X155939748Y-121691174D01*
X155939748Y-121834031D01*
X157725462Y-120476888D02*
X157796891Y-120405460D01*
X157939748Y-120334031D01*
X158296891Y-120334031D01*
X158439748Y-120405460D01*
X158511177Y-120476888D01*
X158582605Y-120619745D01*
X158582605Y-120762602D01*
X158511177Y-120976888D01*
X157654034Y-121834031D01*
X158582605Y-121834031D01*
D14*
X171235086Y-118710770D02*
X171713090Y-118710770D01*
X171455704Y-119004926D01*
X171566012Y-119004926D01*
X171639551Y-119041696D01*
X171676321Y-119078465D01*
X171713090Y-119152004D01*
X171713090Y-119335852D01*
X171676321Y-119409391D01*
X171639551Y-119446160D01*
X171566012Y-119482930D01*
X171345395Y-119482930D01*
X171271856Y-119446160D01*
X171235086Y-119409391D01*
X172411711Y-118710770D02*
X172044016Y-118710770D01*
X172007246Y-119078465D01*
X172044016Y-119041696D01*
X172117555Y-119004926D01*
X172301403Y-119004926D01*
X172374942Y-119041696D01*
X172411711Y-119078465D01*
X172448481Y-119152004D01*
X172448481Y-119335852D01*
X172411711Y-119409391D01*
X172374942Y-119446160D01*
X172301403Y-119482930D01*
X172117555Y-119482930D01*
X172044016Y-119446160D01*
X172007246Y-119409391D01*
X124981062Y-116025869D02*
X125017832Y-115989100D01*
X125091371Y-115952330D01*
X125275219Y-115952330D01*
X125348758Y-115989100D01*
X125385527Y-116025869D01*
X125422297Y-116099408D01*
X125422297Y-116172947D01*
X125385527Y-116283256D01*
X124944293Y-116724490D01*
X125422297Y-116724490D01*
X125361337Y-119327990D02*
X124920102Y-119327990D01*
X125140720Y-119327990D02*
X125140720Y-118555830D01*
X125067180Y-118666139D01*
X124993641Y-118739678D01*
X124920102Y-118776447D01*
X125462937Y-93994030D02*
X125021702Y-93994030D01*
X125242320Y-93994030D02*
X125242320Y-93221870D01*
X125168780Y-93332179D01*
X125095241Y-93405718D01*
X125021702Y-93442487D01*
X125082662Y-90691909D02*
X125119432Y-90655140D01*
X125192971Y-90618370D01*
X125376819Y-90618370D01*
X125450358Y-90655140D01*
X125487127Y-90691909D01*
X125523897Y-90765448D01*
X125523897Y-90838987D01*
X125487127Y-90949296D01*
X125045893Y-91390530D01*
X125523897Y-91390530D01*
X171217306Y-90636150D02*
X171695310Y-90636150D01*
X171437924Y-90930306D01*
X171548232Y-90930306D01*
X171621771Y-90967076D01*
X171658541Y-91003845D01*
X171695310Y-91077384D01*
X171695310Y-91261232D01*
X171658541Y-91334771D01*
X171621771Y-91371540D01*
X171548232Y-91408310D01*
X171327615Y-91408310D01*
X171254076Y-91371540D01*
X171217306Y-91334771D01*
X172357162Y-90636150D02*
X172210084Y-90636150D01*
X172136545Y-90672920D01*
X172099775Y-90709689D01*
X172026236Y-90819998D01*
X171989466Y-90967076D01*
X171989466Y-91261232D01*
X172026236Y-91334771D01*
X172063006Y-91371540D01*
X172136545Y-91408310D01*
X172283623Y-91408310D01*
X172357162Y-91371540D01*
X172393931Y-91334771D01*
X172430701Y-91261232D01*
X172430701Y-91077384D01*
X172393931Y-91003845D01*
X172357162Y-90967076D01*
X172283623Y-90930306D01*
X172136545Y-90930306D01*
X172063006Y-90967076D01*
X172026236Y-91003845D01*
X171989466Y-91077384D01*
X171293506Y-93150750D02*
X171771510Y-93150750D01*
X171514124Y-93444906D01*
X171624432Y-93444906D01*
X171697971Y-93481676D01*
X171734741Y-93518445D01*
X171771510Y-93591984D01*
X171771510Y-93775832D01*
X171734741Y-93849371D01*
X171697971Y-93886140D01*
X171624432Y-93922910D01*
X171403815Y-93922910D01*
X171330276Y-93886140D01*
X171293506Y-93849371D01*
X172470131Y-93150750D02*
X172102436Y-93150750D01*
X172065666Y-93518445D01*
X172102436Y-93481676D01*
X172175975Y-93444906D01*
X172359823Y-93444906D01*
X172433362Y-93481676D01*
X172470131Y-93518445D01*
X172506901Y-93591984D01*
X172506901Y-93775832D01*
X172470131Y-93849371D01*
X172433362Y-93886140D01*
X172359823Y-93922910D01*
X172175975Y-93922910D01*
X172102436Y-93886140D01*
X172065666Y-93849371D01*
X171318906Y-116010750D02*
X171796910Y-116010750D01*
X171539524Y-116304906D01*
X171649832Y-116304906D01*
X171723371Y-116341676D01*
X171760141Y-116378445D01*
X171796910Y-116451984D01*
X171796910Y-116635832D01*
X171760141Y-116709371D01*
X171723371Y-116746140D01*
X171649832Y-116782910D01*
X171429215Y-116782910D01*
X171355676Y-116746140D01*
X171318906Y-116709371D01*
X172458762Y-116010750D02*
X172311684Y-116010750D01*
X172238145Y-116047520D01*
X172201375Y-116084289D01*
X172127836Y-116194598D01*
X172091066Y-116341676D01*
X172091066Y-116635832D01*
X172127836Y-116709371D01*
X172164606Y-116746140D01*
X172238145Y-116782910D01*
X172385223Y-116782910D01*
X172458762Y-116746140D01*
X172495531Y-116709371D01*
X172532301Y-116635832D01*
X172532301Y-116451984D01*
X172495531Y-116378445D01*
X172458762Y-116341676D01*
X172385223Y-116304906D01*
X172238145Y-116304906D01*
X172164606Y-116341676D01*
X172127836Y-116378445D01*
X172091066Y-116451984D01*
D15*
X148874100Y-113107100D02*
X147874100Y-113107100D01*
X147874100Y-114807100D02*
X148874100Y-114807100D01*
D16*
X141225700Y-113966900D02*
X143025700Y-113966900D01*
X143025700Y-110746900D02*
X140575700Y-110746900D01*
D15*
X152786100Y-108187700D02*
X153696100Y-108187700D01*
X158186100Y-107987700D02*
X158186100Y-101587700D01*
X152786100Y-101587700D02*
X152786100Y-108187700D01*
D17*
X159783780Y-98498660D02*
G75*
G03X159783780Y-98498660I-693420J0D01*
G01*
X160588960Y-100848160D02*
X160588960Y-96149160D01*
X157591760Y-100848160D02*
X157591760Y-96149160D01*
X159138620Y-96149160D02*
X159042100Y-96149160D01*
X159138620Y-100848160D02*
X159042100Y-100848160D01*
X163583620Y-100848160D02*
X163487100Y-100848160D01*
X163583620Y-96149160D02*
X163487100Y-96149160D01*
X162036760Y-100848160D02*
X162036760Y-96149160D01*
X165033960Y-100848160D02*
X165033960Y-96149160D01*
X164228780Y-98498660D02*
G75*
G03X164228780Y-98498660I-693420J0D01*
G01*
D15*
X159428780Y-102220360D02*
X159753780Y-102220360D01*
X162678780Y-105470360D02*
X162353780Y-105470360D01*
X162678780Y-102220360D02*
X162353780Y-102220360D01*
X159428780Y-105470360D02*
X159428780Y-104970360D01*
X162678780Y-105470360D02*
X162678780Y-104970360D01*
X162678780Y-102220360D02*
X162678780Y-102720360D01*
X159428780Y-102220360D02*
X159428780Y-102720360D01*
D18*
X172085000Y-99314000D02*
X172085000Y-95123000D01*
X171704000Y-99314000D02*
X172085000Y-99314000D01*
X171704000Y-99949000D02*
X171704000Y-99314000D01*
X172085000Y-99949000D02*
X171704000Y-99949000D01*
X172085000Y-104267000D02*
X172085000Y-99949000D01*
X172720000Y-99949000D02*
X172720000Y-104140000D01*
X173101000Y-99949000D02*
X172720000Y-99949000D01*
X173101000Y-99314000D02*
X173101000Y-99949000D01*
X172720000Y-99314000D02*
X173101000Y-99314000D01*
X172720000Y-95250000D02*
X172720000Y-99314000D01*
X172085000Y-95631000D02*
X172085000Y-95631000D01*
X176276000Y-99695000D02*
X176276000Y-99695000D01*
X175641000Y-100330000D02*
X176276000Y-99695000D01*
X175641000Y-99060000D02*
X175641000Y-100330000D01*
X176276000Y-99695000D02*
X175641000Y-99060000D01*
X169672000Y-95885001D02*
G75*
G02X169672001Y-103504999I2540000J-3809999D01*
G01*
X167132000Y-103505000D02*
X169672000Y-103505000D01*
X167132000Y-95885000D02*
X167132000Y-103505000D01*
X169672000Y-95885000D02*
X167132000Y-95885000D01*
D15*
X133408000Y-113008000D02*
X119311000Y-113008000D01*
X119311000Y-98022000D02*
X133408000Y-98022000D01*
X133408000Y-113008000D02*
X133408000Y-98022000D01*
X119311000Y-113008000D02*
X119311000Y-98022000D01*
X161768600Y-106357400D02*
X161268600Y-106357400D01*
X161268600Y-107307400D02*
X161768600Y-107307400D01*
X169610000Y-111539000D02*
X169110000Y-111539000D01*
X169110000Y-112489000D02*
X169610000Y-112489000D01*
X161384000Y-109555000D02*
X161384000Y-109055000D01*
X160434000Y-109055000D02*
X160434000Y-109555000D01*
X164334000Y-113571000D02*
X163834000Y-113571000D01*
X163834000Y-114521000D02*
X164334000Y-114521000D01*
X139857500Y-111844900D02*
X139857500Y-111344900D01*
X138907500Y-111344900D02*
X138907500Y-111844900D01*
X160434000Y-112449800D02*
X160434000Y-112949800D01*
X161384000Y-112949800D02*
X161384000Y-112449800D01*
X160025100Y-107425300D02*
X160025100Y-106925300D01*
X159075100Y-106925300D02*
X159075100Y-107425300D01*
X162452000Y-112640000D02*
X162452000Y-111865000D01*
X166752000Y-108340000D02*
X166752000Y-109115000D01*
X162452000Y-108340000D02*
X162452000Y-109115000D01*
X166752000Y-112640000D02*
X165977000Y-112640000D01*
X166752000Y-108340000D02*
X165977000Y-108340000D01*
X162452000Y-108340000D02*
X163227000Y-108340000D01*
X162452000Y-112640000D02*
X163227000Y-112640000D01*
X150706000Y-98002000D02*
X148806000Y-98002000D01*
X150706000Y-99102000D02*
X148806000Y-99102000D01*
X149806000Y-98552000D02*
X149356000Y-98552000D01*
X149856000Y-98802000D02*
X149856000Y-98302000D01*
X149856000Y-98552000D02*
X149606000Y-98802000D01*
X149606000Y-98802000D02*
X149606000Y-98302000D01*
X149606000Y-98302000D02*
X149856000Y-98552000D01*
D11*
X154106880Y-109062520D02*
X154106880Y-109098080D01*
X156103320Y-109062520D02*
X156103320Y-109098080D01*
X143542220Y-104071780D02*
X143577780Y-104071780D01*
X143542220Y-106068220D02*
X143577780Y-106068220D01*
X139461780Y-108212220D02*
X139461780Y-108247780D01*
X141458220Y-108212220D02*
X141458220Y-108247780D01*
X137731780Y-100857780D02*
X137731780Y-100822220D01*
X139728220Y-100857780D02*
X139728220Y-100822220D01*
X142138220Y-100857780D02*
X142138220Y-100822220D01*
X140141780Y-100857780D02*
X140141780Y-100822220D01*
D15*
X136027140Y-101558280D02*
X136027140Y-102058280D01*
X136977140Y-102058280D02*
X136977140Y-101558280D01*
X142090000Y-106740000D02*
X141565000Y-106740000D01*
X137790000Y-102440000D02*
X138315000Y-102440000D01*
X137790000Y-106740000D02*
X138315000Y-106740000D01*
X142090000Y-102440000D02*
X142090000Y-102965000D01*
X137790000Y-102440000D02*
X137790000Y-102965000D01*
X137790000Y-106740000D02*
X137790000Y-106215000D01*
X142090000Y-106740000D02*
X142090000Y-106215000D01*
X150626000Y-109320000D02*
X150876000Y-109070000D01*
X151126000Y-109320000D02*
X150626000Y-109320000D01*
X150876000Y-109070000D02*
X151126000Y-109320000D01*
X151126000Y-109070000D02*
X150626000Y-109070000D01*
X150876000Y-109120000D02*
X150876000Y-109570000D01*
X151426000Y-108220000D02*
X151426000Y-110120000D01*
X150326000Y-108220000D02*
X150326000Y-110120000D01*
X150706000Y-110956000D02*
X148806000Y-110956000D01*
X150706000Y-112056000D02*
X148806000Y-112056000D01*
X149806000Y-111506000D02*
X149356000Y-111506000D01*
X149856000Y-111756000D02*
X149856000Y-111256000D01*
X149856000Y-111506000D02*
X149606000Y-111756000D01*
X149606000Y-111756000D02*
X149606000Y-111256000D01*
X149606000Y-111256000D02*
X149856000Y-111506000D01*
X147832000Y-109310000D02*
X148082000Y-109060000D01*
X148332000Y-109310000D02*
X147832000Y-109310000D01*
X148082000Y-109060000D02*
X148332000Y-109310000D01*
X148332000Y-109060000D02*
X147832000Y-109060000D01*
X148082000Y-109110000D02*
X148082000Y-109560000D01*
X148632000Y-108210000D02*
X148632000Y-110110000D01*
X147532000Y-108210000D02*
X147532000Y-110110000D01*
X147645300Y-106580000D02*
X145745300Y-106580000D01*
X147645300Y-107680000D02*
X145745300Y-107680000D01*
X146745300Y-107130000D02*
X146295300Y-107130000D01*
X146795300Y-107380000D02*
X146795300Y-106880000D01*
X146795300Y-107130000D02*
X146545300Y-107380000D01*
X146545300Y-107380000D02*
X146545300Y-106880000D01*
X146545300Y-106880000D02*
X146795300Y-107130000D01*
X149593300Y-106900000D02*
X149843300Y-107150000D01*
X149593300Y-107400000D02*
X149593300Y-106900000D01*
X149843300Y-107150000D02*
X149593300Y-107400000D01*
X149843300Y-107400000D02*
X149843300Y-106900000D01*
X149793300Y-107150000D02*
X149343300Y-107150000D01*
X150693300Y-107700000D02*
X148793300Y-107700000D01*
X150693300Y-106600000D02*
X148793300Y-106600000D01*
X147658000Y-102320000D02*
X145758000Y-102320000D01*
X147658000Y-103420000D02*
X145758000Y-103420000D01*
X146758000Y-102870000D02*
X146308000Y-102870000D01*
X146808000Y-103120000D02*
X146808000Y-102620000D01*
X146808000Y-102870000D02*
X146558000Y-103120000D01*
X146558000Y-103120000D02*
X146558000Y-102620000D01*
X146558000Y-102620000D02*
X146808000Y-102870000D01*
X149606000Y-102620000D02*
X149856000Y-102870000D01*
X149606000Y-103120000D02*
X149606000Y-102620000D01*
X149856000Y-102870000D02*
X149606000Y-103120000D01*
X149856000Y-103120000D02*
X149856000Y-102620000D01*
X149806000Y-102870000D02*
X149356000Y-102870000D01*
X150706000Y-103420000D02*
X148806000Y-103420000D01*
X150706000Y-102320000D02*
X148806000Y-102320000D01*
X144738000Y-99611000D02*
X144738000Y-101511000D01*
X145838000Y-99611000D02*
X145838000Y-101511000D01*
X145288000Y-100511000D02*
X145288000Y-100961000D01*
X145538000Y-100461000D02*
X145038000Y-100461000D01*
X145288000Y-100461000D02*
X145538000Y-100711000D01*
X145538000Y-100711000D02*
X145038000Y-100711000D01*
X145038000Y-100711000D02*
X145288000Y-100461000D01*
X147832000Y-100720000D02*
X148082000Y-100470000D01*
X148332000Y-100720000D02*
X147832000Y-100720000D01*
X148082000Y-100470000D02*
X148332000Y-100720000D01*
X148332000Y-100470000D02*
X147832000Y-100470000D01*
X148082000Y-100520000D02*
X148082000Y-100970000D01*
X148632000Y-99620000D02*
X148632000Y-101520000D01*
X147532000Y-99620000D02*
X147532000Y-101520000D01*
X150320920Y-99603380D02*
X150320920Y-101503380D01*
X151420920Y-99603380D02*
X151420920Y-101503380D01*
X150870920Y-100503380D02*
X150870920Y-100953380D01*
X151120920Y-100453380D02*
X150620920Y-100453380D01*
X150870920Y-100453380D02*
X151120920Y-100703380D01*
X151120920Y-100703380D02*
X150620920Y-100703380D01*
X150620920Y-100703380D02*
X150870920Y-100453380D01*
X146558000Y-98302000D02*
X146808000Y-98552000D01*
X146558000Y-98802000D02*
X146558000Y-98302000D01*
X146808000Y-98552000D02*
X146558000Y-98802000D01*
X146808000Y-98802000D02*
X146808000Y-98302000D01*
X146758000Y-98552000D02*
X146308000Y-98552000D01*
X147658000Y-99102000D02*
X145758000Y-99102000D01*
X147658000Y-98002000D02*
X145758000Y-98002000D01*
X144738000Y-108221600D02*
X144738000Y-110121600D01*
X145838000Y-108221600D02*
X145838000Y-110121600D01*
X145288000Y-109121600D02*
X145288000Y-109571600D01*
X145538000Y-109071600D02*
X145038000Y-109071600D01*
X145288000Y-109071600D02*
X145538000Y-109321600D01*
X145538000Y-109321600D02*
X145038000Y-109321600D01*
X145038000Y-109321600D02*
X145288000Y-109071600D01*
X146558000Y-111256000D02*
X146808000Y-111506000D01*
X146558000Y-111756000D02*
X146558000Y-111256000D01*
X146808000Y-111506000D02*
X146558000Y-111756000D01*
X146808000Y-111756000D02*
X146808000Y-111256000D01*
X146758000Y-111506000D02*
X146308000Y-111506000D01*
X147658000Y-112056000D02*
X145758000Y-112056000D01*
X147658000Y-110956000D02*
X145758000Y-110956000D01*
D19*
X175987800Y-114077920D02*
X175987800Y-106579840D01*
X175987800Y-114077920D02*
X175657600Y-114077920D01*
X175987800Y-106579840D02*
X175657600Y-106579840D01*
X173422400Y-106579840D02*
X172960120Y-106579840D01*
X173422400Y-114077920D02*
X172960120Y-114077920D01*
X171690120Y-112208480D02*
X171690120Y-111997660D01*
X171690120Y-108660100D02*
X171690120Y-108449280D01*
D20*
X176389120Y-111926540D02*
X176137660Y-111926540D01*
X176137660Y-111926540D02*
X176239260Y-111827480D01*
X176137660Y-111926540D02*
X176239260Y-112028140D01*
X176389120Y-112327860D02*
X176137660Y-112327860D01*
X176137660Y-112327860D02*
X176239260Y-112228800D01*
X176137660Y-112327860D02*
X176239260Y-112426920D01*
X176389120Y-112726640D02*
X176137660Y-112726640D01*
X176137660Y-112726640D02*
X176239260Y-112627580D01*
X176137660Y-112726640D02*
X176239260Y-112828240D01*
X176389120Y-113127960D02*
X176137660Y-113127960D01*
X176137660Y-113127960D02*
X176239260Y-113026360D01*
X176137660Y-113127960D02*
X176239260Y-113227020D01*
X176389120Y-113526740D02*
X176137660Y-113526740D01*
X176137660Y-113526740D02*
X176239260Y-113427680D01*
X176137660Y-113526740D02*
X176239260Y-113628340D01*
X176389120Y-107131020D02*
X176137660Y-107131020D01*
X176137660Y-107131020D02*
X176239260Y-107029420D01*
X176137660Y-107131020D02*
X176239260Y-107230080D01*
X176389120Y-107529800D02*
X176137660Y-107529800D01*
X176137660Y-107529800D02*
X176239260Y-107430740D01*
X176137660Y-107529800D02*
X176239260Y-107631400D01*
X176389120Y-107931120D02*
X176137660Y-107931120D01*
X176137660Y-107931120D02*
X176239260Y-107829520D01*
X176137660Y-107931120D02*
X176239260Y-108030180D01*
X176389120Y-108329900D02*
X176137660Y-108329900D01*
X176137660Y-108329900D02*
X176239260Y-108230840D01*
X176137660Y-108329900D02*
X176239260Y-108428960D01*
X176389120Y-108731220D02*
X176137660Y-108731220D01*
X176137660Y-108731220D02*
X176239260Y-108629620D01*
X176137660Y-108731220D02*
X176239260Y-108830280D01*
D17*
X154785060Y-100848160D02*
X154688540Y-100848160D01*
X154785060Y-96149160D02*
X154688540Y-96149160D01*
X153238200Y-100848160D02*
X153238200Y-96149160D01*
X156235400Y-100848160D02*
X156235400Y-96149160D01*
X155430220Y-98498660D02*
G75*
G03X155430220Y-98498660I-693420J0D01*
G01*
D19*
X138104880Y-111516160D02*
X138104880Y-112511840D01*
X136469120Y-112511840D02*
X136469120Y-111516160D01*
X136364980Y-112633760D02*
G75*
G03X136364980Y-112633760I-22860J0D01*
G01*
D16*
X138988920Y-96295940D02*
X138058920Y-96295940D01*
X135828920Y-96295940D02*
X136758920Y-96295940D01*
X135828920Y-96295940D02*
X135828920Y-98455940D01*
X138988920Y-96295940D02*
X138988920Y-97755940D01*
X156413020Y-110987740D02*
X156413020Y-112447740D01*
X153253020Y-110987740D02*
X153253020Y-113147740D01*
X153253020Y-110987740D02*
X154183020Y-110987740D01*
X156413020Y-110987740D02*
X155483020Y-110987740D01*
X159954080Y-111000000D02*
X159024080Y-111000000D01*
X156794080Y-111000000D02*
X157724080Y-111000000D01*
X156794080Y-111000000D02*
X156794080Y-113160000D01*
X159954080Y-111000000D02*
X159954080Y-112460000D01*
D21*
X150500566Y-115126271D02*
X150476757Y-115150080D01*
X150405328Y-115173890D01*
X150357709Y-115173890D01*
X150286280Y-115150080D01*
X150238661Y-115102461D01*
X150214852Y-115054842D01*
X150191042Y-114959604D01*
X150191042Y-114888176D01*
X150214852Y-114792938D01*
X150238661Y-114745319D01*
X150286280Y-114697700D01*
X150357709Y-114673890D01*
X150405328Y-114673890D01*
X150476757Y-114697700D01*
X150500566Y-114721509D01*
X150738661Y-115173890D02*
X150833900Y-115173890D01*
X150881519Y-115150080D01*
X150905328Y-115126271D01*
X150952947Y-115054842D01*
X150976757Y-114959604D01*
X150976757Y-114769128D01*
X150952947Y-114721509D01*
X150929138Y-114697700D01*
X150881519Y-114673890D01*
X150786280Y-114673890D01*
X150738661Y-114697700D01*
X150714852Y-114721509D01*
X150691042Y-114769128D01*
X150691042Y-114888176D01*
X150714852Y-114935795D01*
X150738661Y-114959604D01*
X150786280Y-114983414D01*
X150881519Y-114983414D01*
X150929138Y-114959604D01*
X150952947Y-114935795D01*
X150976757Y-114888176D01*
X145933290Y-114151528D02*
X145695195Y-114318195D01*
X145933290Y-114437242D02*
X145433290Y-114437242D01*
X145433290Y-114246766D01*
X145457100Y-114199147D01*
X145480909Y-114175338D01*
X145528528Y-114151528D01*
X145599957Y-114151528D01*
X145647576Y-114175338D01*
X145671385Y-114199147D01*
X145695195Y-114246766D01*
X145695195Y-114437242D01*
X145933290Y-113675338D02*
X145933290Y-113961052D01*
X145933290Y-113818195D02*
X145433290Y-113818195D01*
X145504719Y-113865814D01*
X145552338Y-113913433D01*
X145576147Y-113961052D01*
X145433290Y-113508671D02*
X145433290Y-113199147D01*
X145623766Y-113365814D01*
X145623766Y-113294385D01*
X145647576Y-113246766D01*
X145671385Y-113222957D01*
X145719004Y-113199147D01*
X145838052Y-113199147D01*
X145885671Y-113222957D01*
X145909480Y-113246766D01*
X145933290Y-113294385D01*
X145933290Y-113437242D01*
X145909480Y-113484861D01*
X145885671Y-113508671D01*
X141490747Y-109949490D02*
X141490747Y-110354252D01*
X141514557Y-110401871D01*
X141538366Y-110425680D01*
X141585985Y-110449490D01*
X141681223Y-110449490D01*
X141728842Y-110425680D01*
X141752652Y-110401871D01*
X141776461Y-110354252D01*
X141776461Y-109949490D01*
X142252652Y-109949490D02*
X142014557Y-109949490D01*
X141990747Y-110187585D01*
X142014557Y-110163776D01*
X142062176Y-110139966D01*
X142181223Y-110139966D01*
X142228842Y-110163776D01*
X142252652Y-110187585D01*
X142276461Y-110235204D01*
X142276461Y-110354252D01*
X142252652Y-110401871D01*
X142228842Y-110425680D01*
X142181223Y-110449490D01*
X142062176Y-110449490D01*
X142014557Y-110425680D01*
X141990747Y-110401871D01*
X152562690Y-105883033D02*
X152562690Y-106121128D01*
X152062690Y-106121128D01*
X152562690Y-105716366D02*
X152062690Y-105716366D01*
X152062690Y-105597319D01*
X152086500Y-105525890D01*
X152134119Y-105478271D01*
X152181738Y-105454461D01*
X152276976Y-105430652D01*
X152348404Y-105430652D01*
X152443642Y-105454461D01*
X152491261Y-105478271D01*
X152538880Y-105525890D01*
X152562690Y-105597319D01*
X152562690Y-105716366D01*
X152562690Y-104954461D02*
X152562690Y-105240176D01*
X152562690Y-105097319D02*
X152062690Y-105097319D01*
X152134119Y-105144938D01*
X152181738Y-105192557D01*
X152205547Y-105240176D01*
X129445272Y-121274970D02*
X129445272Y-120774970D01*
X129635748Y-120774970D01*
X129683367Y-120798780D01*
X129707177Y-120822589D01*
X129730986Y-120870208D01*
X129730986Y-120941637D01*
X129707177Y-120989256D01*
X129683367Y-121013065D01*
X129635748Y-121036875D01*
X129445272Y-121036875D01*
X130207177Y-121274970D02*
X129921462Y-121274970D01*
X130064320Y-121274970D02*
X130064320Y-120774970D01*
X130016700Y-120846399D01*
X129969081Y-120894018D01*
X129921462Y-120917827D01*
D15*
D21*
X134201030Y-100191688D02*
X133962935Y-100358355D01*
X134201030Y-100477402D02*
X133701030Y-100477402D01*
X133701030Y-100286926D01*
X133724840Y-100239307D01*
X133748649Y-100215498D01*
X133796268Y-100191688D01*
X133867697Y-100191688D01*
X133915316Y-100215498D01*
X133939125Y-100239307D01*
X133962935Y-100286926D01*
X133962935Y-100477402D01*
X134201030Y-99715498D02*
X134201030Y-100001212D01*
X134201030Y-99858355D02*
X133701030Y-99858355D01*
X133772459Y-99905974D01*
X133820078Y-99953593D01*
X133843887Y-100001212D01*
X133748649Y-99525021D02*
X133724840Y-99501212D01*
X133701030Y-99453593D01*
X133701030Y-99334545D01*
X133724840Y-99286926D01*
X133748649Y-99263117D01*
X133796268Y-99239307D01*
X133843887Y-99239307D01*
X133915316Y-99263117D01*
X134201030Y-99548831D01*
X134201030Y-99239307D01*
X157342020Y-99094206D02*
X157365830Y-99022778D01*
X157365830Y-98903730D01*
X157342020Y-98856111D01*
X157318211Y-98832301D01*
X157270592Y-98808492D01*
X157222973Y-98808492D01*
X157175354Y-98832301D01*
X157151544Y-98856111D01*
X157127735Y-98903730D01*
X157103925Y-98998968D01*
X157080116Y-99046587D01*
X157056306Y-99070397D01*
X157008687Y-99094206D01*
X156961068Y-99094206D01*
X156913449Y-99070397D01*
X156889640Y-99046587D01*
X156865830Y-98998968D01*
X156865830Y-98879920D01*
X156889640Y-98808492D01*
X156865830Y-98641825D02*
X157365830Y-98522778D01*
X157008687Y-98427540D01*
X157365830Y-98332301D01*
X156865830Y-98213254D01*
X156913449Y-98046587D02*
X156889640Y-98022778D01*
X156865830Y-97975159D01*
X156865830Y-97856111D01*
X156889640Y-97808492D01*
X156913449Y-97784682D01*
X156961068Y-97760873D01*
X157008687Y-97760873D01*
X157080116Y-97784682D01*
X157365830Y-98070397D01*
X157365830Y-97760873D01*
X161771780Y-99139926D02*
X161795590Y-99068498D01*
X161795590Y-98949450D01*
X161771780Y-98901831D01*
X161747971Y-98878021D01*
X161700352Y-98854212D01*
X161652733Y-98854212D01*
X161605114Y-98878021D01*
X161581304Y-98901831D01*
X161557495Y-98949450D01*
X161533685Y-99044688D01*
X161509876Y-99092307D01*
X161486066Y-99116117D01*
X161438447Y-99139926D01*
X161390828Y-99139926D01*
X161343209Y-99116117D01*
X161319400Y-99092307D01*
X161295590Y-99044688D01*
X161295590Y-98925640D01*
X161319400Y-98854212D01*
X161295590Y-98687545D02*
X161795590Y-98568498D01*
X161438447Y-98473260D01*
X161795590Y-98378021D01*
X161295590Y-98258974D01*
X161295590Y-98116117D02*
X161295590Y-97806593D01*
X161486066Y-97973260D01*
X161486066Y-97901831D01*
X161509876Y-97854212D01*
X161533685Y-97830402D01*
X161581304Y-97806593D01*
X161700352Y-97806593D01*
X161747971Y-97830402D01*
X161771780Y-97854212D01*
X161795590Y-97901831D01*
X161795590Y-98044688D01*
X161771780Y-98092307D01*
X161747971Y-98116117D01*
X158407147Y-105250490D02*
X158407147Y-105655252D01*
X158430957Y-105702871D01*
X158454766Y-105726680D01*
X158502385Y-105750490D01*
X158597623Y-105750490D01*
X158645242Y-105726680D01*
X158669052Y-105702871D01*
X158692861Y-105655252D01*
X158692861Y-105250490D01*
X158907147Y-105298109D02*
X158930957Y-105274300D01*
X158978576Y-105250490D01*
X159097623Y-105250490D01*
X159145242Y-105274300D01*
X159169052Y-105298109D01*
X159192861Y-105345728D01*
X159192861Y-105393347D01*
X159169052Y-105464776D01*
X158883338Y-105750490D01*
X159192861Y-105750490D01*
X167692900Y-95516830D02*
X167526234Y-95278735D01*
X167407186Y-95516830D02*
X167407186Y-95016830D01*
X167597662Y-95016830D01*
X167645281Y-95040640D01*
X167669091Y-95064449D01*
X167692900Y-95112068D01*
X167692900Y-95183497D01*
X167669091Y-95231116D01*
X167645281Y-95254925D01*
X167597662Y-95278735D01*
X167407186Y-95278735D01*
X167835758Y-95016830D02*
X168002424Y-95516830D01*
X168169091Y-95016830D01*
X168597662Y-95516830D02*
X168311948Y-95516830D01*
X168454805Y-95516830D02*
X168454805Y-95016830D01*
X168407186Y-95088259D01*
X168359567Y-95135878D01*
X168311948Y-95159687D01*
X121829070Y-95844806D02*
X122186213Y-95844806D01*
X122257641Y-95868616D01*
X122305260Y-95916235D01*
X122329070Y-95987663D01*
X122329070Y-96035282D01*
X122329070Y-95344806D02*
X122329070Y-95630520D01*
X122329070Y-95487663D02*
X121829070Y-95487663D01*
X121900499Y-95535282D01*
X121948118Y-95582901D01*
X121971927Y-95630520D01*
X161384466Y-108001571D02*
X161360657Y-108025380D01*
X161289228Y-108049190D01*
X161241609Y-108049190D01*
X161170180Y-108025380D01*
X161122561Y-107977761D01*
X161098752Y-107930142D01*
X161074942Y-107834904D01*
X161074942Y-107763476D01*
X161098752Y-107668238D01*
X161122561Y-107620619D01*
X161170180Y-107573000D01*
X161241609Y-107549190D01*
X161289228Y-107549190D01*
X161360657Y-107573000D01*
X161384466Y-107596809D01*
X161551133Y-107549190D02*
X161860657Y-107549190D01*
X161693990Y-107739666D01*
X161765419Y-107739666D01*
X161813038Y-107763476D01*
X161836847Y-107787285D01*
X161860657Y-107834904D01*
X161860657Y-107953952D01*
X161836847Y-108001571D01*
X161813038Y-108025380D01*
X161765419Y-108049190D01*
X161622561Y-108049190D01*
X161574942Y-108025380D01*
X161551133Y-108001571D01*
X169207666Y-113335571D02*
X169183857Y-113359380D01*
X169112428Y-113383190D01*
X169064809Y-113383190D01*
X168993380Y-113359380D01*
X168945761Y-113311761D01*
X168921952Y-113264142D01*
X168898142Y-113168904D01*
X168898142Y-113097476D01*
X168921952Y-113002238D01*
X168945761Y-112954619D01*
X168993380Y-112907000D01*
X169064809Y-112883190D01*
X169112428Y-112883190D01*
X169183857Y-112907000D01*
X169207666Y-112930809D01*
X169636238Y-113049857D02*
X169636238Y-113383190D01*
X169517190Y-112859380D02*
X169398142Y-113216523D01*
X169707666Y-113216523D01*
X160047771Y-109431513D02*
X160071580Y-109455322D01*
X160095390Y-109526751D01*
X160095390Y-109574370D01*
X160071580Y-109645799D01*
X160023961Y-109693418D01*
X159976342Y-109717227D01*
X159881104Y-109741037D01*
X159809676Y-109741037D01*
X159714438Y-109717227D01*
X159666819Y-109693418D01*
X159619200Y-109645799D01*
X159595390Y-109574370D01*
X159595390Y-109526751D01*
X159619200Y-109455322D01*
X159643009Y-109431513D01*
X159595390Y-108979132D02*
X159595390Y-109217227D01*
X159833485Y-109241037D01*
X159809676Y-109217227D01*
X159785866Y-109169608D01*
X159785866Y-109050560D01*
X159809676Y-109002941D01*
X159833485Y-108979132D01*
X159881104Y-108955322D01*
X160000152Y-108955322D01*
X160047771Y-108979132D01*
X160071580Y-109002941D01*
X160095390Y-109050560D01*
X160095390Y-109169608D01*
X160071580Y-109217227D01*
X160047771Y-109241037D01*
X164017226Y-115268331D02*
X163993417Y-115292140D01*
X163921988Y-115315950D01*
X163874369Y-115315950D01*
X163802940Y-115292140D01*
X163755321Y-115244521D01*
X163731512Y-115196902D01*
X163707702Y-115101664D01*
X163707702Y-115030236D01*
X163731512Y-114934998D01*
X163755321Y-114887379D01*
X163802940Y-114839760D01*
X163874369Y-114815950D01*
X163921988Y-114815950D01*
X163993417Y-114839760D01*
X164017226Y-114863569D01*
X164302940Y-115030236D02*
X164255321Y-115006426D01*
X164231512Y-114982617D01*
X164207702Y-114934998D01*
X164207702Y-114911188D01*
X164231512Y-114863569D01*
X164255321Y-114839760D01*
X164302940Y-114815950D01*
X164398179Y-114815950D01*
X164445798Y-114839760D01*
X164469607Y-114863569D01*
X164493417Y-114911188D01*
X164493417Y-114934998D01*
X164469607Y-114982617D01*
X164445798Y-115006426D01*
X164398179Y-115030236D01*
X164302940Y-115030236D01*
X164255321Y-115054045D01*
X164231512Y-115077855D01*
X164207702Y-115125474D01*
X164207702Y-115220712D01*
X164231512Y-115268331D01*
X164255321Y-115292140D01*
X164302940Y-115315950D01*
X164398179Y-115315950D01*
X164445798Y-115292140D01*
X164469607Y-115268331D01*
X164493417Y-115220712D01*
X164493417Y-115125474D01*
X164469607Y-115077855D01*
X164445798Y-115054045D01*
X164398179Y-115030236D01*
X139586471Y-113430833D02*
X139610280Y-113454642D01*
X139634090Y-113526071D01*
X139634090Y-113573690D01*
X139610280Y-113645119D01*
X139562661Y-113692738D01*
X139515042Y-113716547D01*
X139419804Y-113740357D01*
X139348376Y-113740357D01*
X139253138Y-113716547D01*
X139205519Y-113692738D01*
X139157900Y-113645119D01*
X139134090Y-113573690D01*
X139134090Y-113526071D01*
X139157900Y-113454642D01*
X139181709Y-113430833D01*
X139134090Y-113264166D02*
X139134090Y-112930833D01*
X139634090Y-113145119D01*
X161097731Y-111134673D02*
X161121540Y-111158482D01*
X161145350Y-111229911D01*
X161145350Y-111277530D01*
X161121540Y-111348959D01*
X161073921Y-111396578D01*
X161026302Y-111420387D01*
X160931064Y-111444197D01*
X160859636Y-111444197D01*
X160764398Y-111420387D01*
X160716779Y-111396578D01*
X160669160Y-111348959D01*
X160645350Y-111277530D01*
X160645350Y-111229911D01*
X160669160Y-111158482D01*
X160692969Y-111134673D01*
X160645350Y-110706101D02*
X160645350Y-110801340D01*
X160669160Y-110848959D01*
X160692969Y-110872768D01*
X160764398Y-110920387D01*
X160859636Y-110944197D01*
X161050112Y-110944197D01*
X161097731Y-110920387D01*
X161121540Y-110896578D01*
X161145350Y-110848959D01*
X161145350Y-110753720D01*
X161121540Y-110706101D01*
X161097731Y-110682292D01*
X161050112Y-110658482D01*
X160931064Y-110658482D01*
X160883445Y-110682292D01*
X160859636Y-110706101D01*
X160835826Y-110753720D01*
X160835826Y-110848959D01*
X160859636Y-110896578D01*
X160883445Y-110920387D01*
X160931064Y-110944197D01*
X158839671Y-107157033D02*
X158863480Y-107180842D01*
X158887290Y-107252271D01*
X158887290Y-107299890D01*
X158863480Y-107371319D01*
X158815861Y-107418938D01*
X158768242Y-107442747D01*
X158673004Y-107466557D01*
X158601576Y-107466557D01*
X158506338Y-107442747D01*
X158458719Y-107418938D01*
X158411100Y-107371319D01*
X158387290Y-107299890D01*
X158387290Y-107252271D01*
X158411100Y-107180842D01*
X158434909Y-107157033D01*
X158434909Y-106966557D02*
X158411100Y-106942747D01*
X158387290Y-106895128D01*
X158387290Y-106776080D01*
X158411100Y-106728461D01*
X158434909Y-106704652D01*
X158482528Y-106680842D01*
X158530147Y-106680842D01*
X158601576Y-106704652D01*
X158887290Y-106990366D01*
X158887290Y-106680842D01*
X167116467Y-112185210D02*
X167116467Y-112589972D01*
X167140277Y-112637591D01*
X167164086Y-112661400D01*
X167211705Y-112685210D01*
X167306943Y-112685210D01*
X167354562Y-112661400D01*
X167378372Y-112637591D01*
X167402181Y-112589972D01*
X167402181Y-112185210D01*
X167854562Y-112351877D02*
X167854562Y-112685210D01*
X167735515Y-112161400D02*
X167616467Y-112518543D01*
X167925991Y-112518543D01*
X151682331Y-95521910D02*
X151515664Y-95283815D01*
X151396617Y-95521910D02*
X151396617Y-95021910D01*
X151587093Y-95021910D01*
X151634712Y-95045720D01*
X151658521Y-95069529D01*
X151682331Y-95117148D01*
X151682331Y-95188577D01*
X151658521Y-95236196D01*
X151634712Y-95260005D01*
X151587093Y-95283815D01*
X151396617Y-95283815D01*
X152158521Y-95521910D02*
X151872807Y-95521910D01*
X152015664Y-95521910D02*
X152015664Y-95021910D01*
X151968045Y-95093339D01*
X151920426Y-95140958D01*
X151872807Y-95164767D01*
X152634712Y-95521910D02*
X152348998Y-95521910D01*
X152491855Y-95521910D02*
X152491855Y-95021910D01*
X152444236Y-95093339D01*
X152396617Y-95140958D01*
X152348998Y-95164767D01*
X168191666Y-111005110D02*
X168025000Y-110767015D01*
X167905952Y-111005110D02*
X167905952Y-110505110D01*
X168096428Y-110505110D01*
X168144047Y-110528920D01*
X168167857Y-110552729D01*
X168191666Y-110600348D01*
X168191666Y-110671777D01*
X168167857Y-110719396D01*
X168144047Y-110743205D01*
X168096428Y-110767015D01*
X167905952Y-110767015D01*
X168429761Y-111005110D02*
X168525000Y-111005110D01*
X168572619Y-110981300D01*
X168596428Y-110957491D01*
X168644047Y-110886062D01*
X168667857Y-110790824D01*
X168667857Y-110600348D01*
X168644047Y-110552729D01*
X168620238Y-110528920D01*
X168572619Y-110505110D01*
X168477380Y-110505110D01*
X168429761Y-110528920D01*
X168405952Y-110552729D01*
X168382142Y-110600348D01*
X168382142Y-110719396D01*
X168405952Y-110767015D01*
X168429761Y-110790824D01*
X168477380Y-110814634D01*
X168572619Y-110814634D01*
X168620238Y-110790824D01*
X168644047Y-110767015D01*
X168667857Y-110719396D01*
X166124426Y-104553990D02*
X165957760Y-104315895D01*
X165838712Y-104553990D02*
X165838712Y-104053990D01*
X166029188Y-104053990D01*
X166076807Y-104077800D01*
X166100617Y-104101609D01*
X166124426Y-104149228D01*
X166124426Y-104220657D01*
X166100617Y-104268276D01*
X166076807Y-104292085D01*
X166029188Y-104315895D01*
X165838712Y-104315895D01*
X166410140Y-104268276D02*
X166362521Y-104244466D01*
X166338712Y-104220657D01*
X166314902Y-104173038D01*
X166314902Y-104149228D01*
X166338712Y-104101609D01*
X166362521Y-104077800D01*
X166410140Y-104053990D01*
X166505379Y-104053990D01*
X166552998Y-104077800D01*
X166576807Y-104101609D01*
X166600617Y-104149228D01*
X166600617Y-104173038D01*
X166576807Y-104220657D01*
X166552998Y-104244466D01*
X166505379Y-104268276D01*
X166410140Y-104268276D01*
X166362521Y-104292085D01*
X166338712Y-104315895D01*
X166314902Y-104363514D01*
X166314902Y-104458752D01*
X166338712Y-104506371D01*
X166362521Y-104530180D01*
X166410140Y-104553990D01*
X166505379Y-104553990D01*
X166552998Y-104530180D01*
X166576807Y-104506371D01*
X166600617Y-104458752D01*
X166600617Y-104363514D01*
X166576807Y-104315895D01*
X166552998Y-104292085D01*
X166505379Y-104268276D01*
X167826571Y-110208190D02*
X167659904Y-109970095D01*
X167540857Y-110208190D02*
X167540857Y-109708190D01*
X167731333Y-109708190D01*
X167778952Y-109732000D01*
X167802761Y-109755809D01*
X167826571Y-109803428D01*
X167826571Y-109874857D01*
X167802761Y-109922476D01*
X167778952Y-109946285D01*
X167731333Y-109970095D01*
X167540857Y-109970095D01*
X168302761Y-110208190D02*
X168017047Y-110208190D01*
X168159904Y-110208190D02*
X168159904Y-109708190D01*
X168112285Y-109779619D01*
X168064666Y-109827238D01*
X168017047Y-109851047D01*
X168612285Y-109708190D02*
X168659904Y-109708190D01*
X168707523Y-109732000D01*
X168731333Y-109755809D01*
X168755142Y-109803428D01*
X168778952Y-109898666D01*
X168778952Y-110017714D01*
X168755142Y-110112952D01*
X168731333Y-110160571D01*
X168707523Y-110184380D01*
X168659904Y-110208190D01*
X168612285Y-110208190D01*
X168564666Y-110184380D01*
X168540857Y-110160571D01*
X168517047Y-110112952D01*
X168493238Y-110017714D01*
X168493238Y-109898666D01*
X168517047Y-109803428D01*
X168540857Y-109755809D01*
X168564666Y-109732000D01*
X168612285Y-109708190D01*
X166541233Y-114194065D02*
X166374566Y-114194065D01*
X166374566Y-114455970D02*
X166374566Y-113955970D01*
X166612661Y-113955970D01*
X166969804Y-114194065D02*
X167041233Y-114217875D01*
X167065042Y-114241684D01*
X167088852Y-114289303D01*
X167088852Y-114360732D01*
X167065042Y-114408351D01*
X167041233Y-114432160D01*
X166993614Y-114455970D01*
X166803138Y-114455970D01*
X166803138Y-113955970D01*
X166969804Y-113955970D01*
X167017423Y-113979780D01*
X167041233Y-114003589D01*
X167065042Y-114051208D01*
X167065042Y-114098827D01*
X167041233Y-114146446D01*
X167017423Y-114170256D01*
X166969804Y-114194065D01*
X166803138Y-114194065D01*
X167255519Y-113955970D02*
X167565042Y-113955970D01*
X167398376Y-114146446D01*
X167469804Y-114146446D01*
X167517423Y-114170256D01*
X167541233Y-114194065D01*
X167565042Y-114241684D01*
X167565042Y-114360732D01*
X167541233Y-114408351D01*
X167517423Y-114432160D01*
X167469804Y-114455970D01*
X167326947Y-114455970D01*
X167279328Y-114432160D01*
X167255519Y-114408351D01*
D19*
D21*
X134774785Y-109547766D02*
X134774785Y-109714433D01*
X135036690Y-109714433D02*
X134536690Y-109714433D01*
X134536690Y-109476338D01*
X134774785Y-109119195D02*
X134798595Y-109047766D01*
X134822404Y-109023957D01*
X134870023Y-109000147D01*
X134941452Y-109000147D01*
X134989071Y-109023957D01*
X135012880Y-109047766D01*
X135036690Y-109095385D01*
X135036690Y-109285861D01*
X134536690Y-109285861D01*
X134536690Y-109119195D01*
X134560500Y-109071576D01*
X134584309Y-109047766D01*
X134631928Y-109023957D01*
X134679547Y-109023957D01*
X134727166Y-109047766D01*
X134750976Y-109071576D01*
X134774785Y-109119195D01*
X134774785Y-109285861D01*
X134584309Y-108809671D02*
X134560500Y-108785861D01*
X134536690Y-108738242D01*
X134536690Y-108619195D01*
X134560500Y-108571576D01*
X134584309Y-108547766D01*
X134631928Y-108523957D01*
X134679547Y-108523957D01*
X134750976Y-108547766D01*
X135036690Y-108833480D01*
X135036690Y-108523957D01*
D19*
D21*
X134723985Y-105712366D02*
X134723985Y-105879033D01*
X134985890Y-105879033D02*
X134485890Y-105879033D01*
X134485890Y-105640938D01*
X134723985Y-105283795D02*
X134747795Y-105212366D01*
X134771604Y-105188557D01*
X134819223Y-105164747D01*
X134890652Y-105164747D01*
X134938271Y-105188557D01*
X134962080Y-105212366D01*
X134985890Y-105259985D01*
X134985890Y-105450461D01*
X134485890Y-105450461D01*
X134485890Y-105283795D01*
X134509700Y-105236176D01*
X134533509Y-105212366D01*
X134581128Y-105188557D01*
X134628747Y-105188557D01*
X134676366Y-105212366D01*
X134700176Y-105236176D01*
X134723985Y-105283795D01*
X134723985Y-105450461D01*
X134652557Y-104736176D02*
X134985890Y-104736176D01*
X134462080Y-104855223D02*
X134819223Y-104974271D01*
X134819223Y-104664747D01*
D19*
D21*
X156822861Y-109286490D02*
X156656195Y-109048395D01*
X156537147Y-109286490D02*
X156537147Y-108786490D01*
X156727623Y-108786490D01*
X156775242Y-108810300D01*
X156799052Y-108834109D01*
X156822861Y-108881728D01*
X156822861Y-108953157D01*
X156799052Y-109000776D01*
X156775242Y-109024585D01*
X156727623Y-109048395D01*
X156537147Y-109048395D01*
X157037147Y-109286490D02*
X157037147Y-108786490D01*
X157322861Y-109286490D01*
X157322861Y-108786490D01*
X157799052Y-108786490D02*
X157560957Y-108786490D01*
X157537147Y-109024585D01*
X157560957Y-109000776D01*
X157608576Y-108976966D01*
X157727623Y-108976966D01*
X157775242Y-109000776D01*
X157799052Y-109024585D01*
X157822861Y-109072204D01*
X157822861Y-109191252D01*
X157799052Y-109238871D01*
X157775242Y-109262680D01*
X157727623Y-109286490D01*
X157608576Y-109286490D01*
X157560957Y-109262680D01*
X157537147Y-109238871D01*
X145145890Y-105412338D02*
X144907795Y-105579004D01*
X145145890Y-105698052D02*
X144645890Y-105698052D01*
X144645890Y-105507576D01*
X144669700Y-105459957D01*
X144693509Y-105436147D01*
X144741128Y-105412338D01*
X144812557Y-105412338D01*
X144860176Y-105436147D01*
X144883985Y-105459957D01*
X144907795Y-105507576D01*
X144907795Y-105698052D01*
X145145890Y-105198052D02*
X144645890Y-105198052D01*
X145145890Y-104912338D01*
X144645890Y-104912338D01*
X144812557Y-104459957D02*
X145145890Y-104459957D01*
X144622080Y-104579004D02*
X144979223Y-104698052D01*
X144979223Y-104388528D01*
X140104761Y-109827190D02*
X139938095Y-109589095D01*
X139819047Y-109827190D02*
X139819047Y-109327190D01*
X140009523Y-109327190D01*
X140057142Y-109351000D01*
X140080952Y-109374809D01*
X140104761Y-109422428D01*
X140104761Y-109493857D01*
X140080952Y-109541476D01*
X140057142Y-109565285D01*
X140009523Y-109589095D01*
X139819047Y-109589095D01*
X140319047Y-109827190D02*
X140319047Y-109327190D01*
X140604761Y-109827190D01*
X140604761Y-109327190D01*
X140795238Y-109327190D02*
X141104761Y-109327190D01*
X140938095Y-109517666D01*
X141009523Y-109517666D01*
X141057142Y-109541476D01*
X141080952Y-109565285D01*
X141104761Y-109612904D01*
X141104761Y-109731952D01*
X141080952Y-109779571D01*
X141057142Y-109803380D01*
X141009523Y-109827190D01*
X140866666Y-109827190D01*
X140819047Y-109803380D01*
X140795238Y-109779571D01*
X138592761Y-99794190D02*
X138426095Y-99556095D01*
X138307047Y-99794190D02*
X138307047Y-99294190D01*
X138497523Y-99294190D01*
X138545142Y-99318000D01*
X138568952Y-99341809D01*
X138592761Y-99389428D01*
X138592761Y-99460857D01*
X138568952Y-99508476D01*
X138545142Y-99532285D01*
X138497523Y-99556095D01*
X138307047Y-99556095D01*
X138807047Y-99794190D02*
X138807047Y-99294190D01*
X139092761Y-99794190D01*
X139092761Y-99294190D01*
X139307047Y-99341809D02*
X139330857Y-99318000D01*
X139378476Y-99294190D01*
X139497523Y-99294190D01*
X139545142Y-99318000D01*
X139568952Y-99341809D01*
X139592761Y-99389428D01*
X139592761Y-99437047D01*
X139568952Y-99508476D01*
X139283238Y-99794190D01*
X139592761Y-99794190D01*
X140878761Y-99794190D02*
X140712095Y-99556095D01*
X140593047Y-99794190D02*
X140593047Y-99294190D01*
X140783523Y-99294190D01*
X140831142Y-99318000D01*
X140854952Y-99341809D01*
X140878761Y-99389428D01*
X140878761Y-99460857D01*
X140854952Y-99508476D01*
X140831142Y-99532285D01*
X140783523Y-99556095D01*
X140593047Y-99556095D01*
X141093047Y-99794190D02*
X141093047Y-99294190D01*
X141378761Y-99794190D01*
X141378761Y-99294190D01*
X141878761Y-99794190D02*
X141593047Y-99794190D01*
X141735904Y-99794190D02*
X141735904Y-99294190D01*
X141688285Y-99365619D01*
X141640666Y-99413238D01*
X141593047Y-99437047D01*
X136680711Y-100113613D02*
X136704520Y-100137422D01*
X136728330Y-100208851D01*
X136728330Y-100256470D01*
X136704520Y-100327899D01*
X136656901Y-100375518D01*
X136609282Y-100399327D01*
X136514044Y-100423137D01*
X136442616Y-100423137D01*
X136347378Y-100399327D01*
X136299759Y-100375518D01*
X136252140Y-100327899D01*
X136228330Y-100256470D01*
X136228330Y-100208851D01*
X136252140Y-100137422D01*
X136275949Y-100113613D01*
X136728330Y-99637422D02*
X136728330Y-99923137D01*
X136728330Y-99780280D02*
X136228330Y-99780280D01*
X136299759Y-99827899D01*
X136347378Y-99875518D01*
X136371187Y-99923137D01*
X142875047Y-102088190D02*
X142875047Y-102492952D01*
X142898857Y-102540571D01*
X142922666Y-102564380D01*
X142970285Y-102588190D01*
X143065523Y-102588190D01*
X143113142Y-102564380D01*
X143136952Y-102540571D01*
X143160761Y-102492952D01*
X143160761Y-102088190D01*
X143660761Y-102588190D02*
X143375047Y-102588190D01*
X143517904Y-102588190D02*
X143517904Y-102088190D01*
X143470285Y-102159619D01*
X143422666Y-102207238D01*
X143375047Y-102231047D01*
X166142266Y-105874790D02*
X165975600Y-105636695D01*
X165856552Y-105874790D02*
X165856552Y-105374790D01*
X166047028Y-105374790D01*
X166094647Y-105398600D01*
X166118457Y-105422409D01*
X166142266Y-105470028D01*
X166142266Y-105541457D01*
X166118457Y-105589076D01*
X166094647Y-105612885D01*
X166047028Y-105636695D01*
X165856552Y-105636695D01*
X166308933Y-105374790D02*
X166642266Y-105374790D01*
X166427980Y-105874790D01*
X134272150Y-97997793D02*
X134034055Y-98164460D01*
X134272150Y-98283507D02*
X133772150Y-98283507D01*
X133772150Y-98093031D01*
X133795960Y-98045412D01*
X133819769Y-98021602D01*
X133867388Y-97997793D01*
X133938817Y-97997793D01*
X133986436Y-98021602D01*
X134010245Y-98045412D01*
X134034055Y-98093031D01*
X134034055Y-98283507D01*
X133772150Y-97569221D02*
X133772150Y-97664460D01*
X133795960Y-97712079D01*
X133819769Y-97735888D01*
X133891198Y-97783507D01*
X133986436Y-97807317D01*
X134176912Y-97807317D01*
X134224531Y-97783507D01*
X134248340Y-97759698D01*
X134272150Y-97712079D01*
X134272150Y-97616840D01*
X134248340Y-97569221D01*
X134224531Y-97545412D01*
X134176912Y-97521602D01*
X134057864Y-97521602D01*
X134010245Y-97545412D01*
X133986436Y-97569221D01*
X133962626Y-97616840D01*
X133962626Y-97712079D01*
X133986436Y-97759698D01*
X134010245Y-97783507D01*
X134057864Y-97807317D01*
X152296346Y-115143410D02*
X152129680Y-114905315D01*
X152010632Y-115143410D02*
X152010632Y-114643410D01*
X152201108Y-114643410D01*
X152248727Y-114667220D01*
X152272537Y-114691029D01*
X152296346Y-114738648D01*
X152296346Y-114810077D01*
X152272537Y-114857696D01*
X152248727Y-114881505D01*
X152201108Y-114905315D01*
X152010632Y-114905315D01*
X152724918Y-114810077D02*
X152724918Y-115143410D01*
X152605870Y-114619600D02*
X152486822Y-114976743D01*
X152796346Y-114976743D01*
X134272150Y-96092793D02*
X134034055Y-96259460D01*
X134272150Y-96378507D02*
X133772150Y-96378507D01*
X133772150Y-96188031D01*
X133795960Y-96140412D01*
X133819769Y-96116602D01*
X133867388Y-96092793D01*
X133938817Y-96092793D01*
X133986436Y-96116602D01*
X134010245Y-96140412D01*
X134034055Y-96188031D01*
X134034055Y-96378507D01*
X133772150Y-95926126D02*
X133772150Y-95616602D01*
X133962626Y-95783269D01*
X133962626Y-95711840D01*
X133986436Y-95664221D01*
X134010245Y-95640412D01*
X134057864Y-95616602D01*
X134176912Y-95616602D01*
X134224531Y-95640412D01*
X134248340Y-95664221D01*
X134272150Y-95711840D01*
X134272150Y-95854698D01*
X134248340Y-95902317D01*
X134224531Y-95926126D01*
X158671746Y-115097690D02*
X158505080Y-114859595D01*
X158386032Y-115097690D02*
X158386032Y-114597690D01*
X158576508Y-114597690D01*
X158624127Y-114621500D01*
X158647937Y-114645309D01*
X158671746Y-114692928D01*
X158671746Y-114764357D01*
X158647937Y-114811976D01*
X158624127Y-114835785D01*
X158576508Y-114859595D01*
X158386032Y-114859595D01*
X158862222Y-114645309D02*
X158886032Y-114621500D01*
X158933651Y-114597690D01*
X159052699Y-114597690D01*
X159100318Y-114621500D01*
X159124127Y-114645309D01*
X159147937Y-114692928D01*
X159147937Y-114740547D01*
X159124127Y-114811976D01*
X158838413Y-115097690D01*
X159147937Y-115097690D01*
X154440106Y-115077370D02*
X154273440Y-114839275D01*
X154154392Y-115077370D02*
X154154392Y-114577370D01*
X154344868Y-114577370D01*
X154392487Y-114601180D01*
X154416297Y-114624989D01*
X154440106Y-114672608D01*
X154440106Y-114744037D01*
X154416297Y-114791656D01*
X154392487Y-114815465D01*
X154344868Y-114839275D01*
X154154392Y-114839275D01*
X154916297Y-115077370D02*
X154630582Y-115077370D01*
X154773440Y-115077370D02*
X154773440Y-114577370D01*
X154725820Y-114648799D01*
X154678201Y-114696418D01*
X154630582Y-114720227D01*
X156881046Y-115112930D02*
X156714380Y-114874835D01*
X156595332Y-115112930D02*
X156595332Y-114612930D01*
X156785808Y-114612930D01*
X156833427Y-114636740D01*
X156857237Y-114660549D01*
X156881046Y-114708168D01*
X156881046Y-114779597D01*
X156857237Y-114827216D01*
X156833427Y-114851025D01*
X156785808Y-114874835D01*
X156595332Y-114874835D01*
X157333427Y-114612930D02*
X157095332Y-114612930D01*
X157071522Y-114851025D01*
X157095332Y-114827216D01*
X157142951Y-114803406D01*
X157261999Y-114803406D01*
X157309618Y-114827216D01*
X157333427Y-114851025D01*
X157357237Y-114898644D01*
X157357237Y-115017692D01*
X157333427Y-115065311D01*
X157309618Y-115089120D01*
X157261999Y-115112930D01*
X157142951Y-115112930D01*
X157095332Y-115089120D01*
X157071522Y-115065311D01*
X166651893Y-106555865D02*
X166485226Y-106555865D01*
X166485226Y-106817770D02*
X166485226Y-106317770D01*
X166723321Y-106317770D01*
X167080464Y-106555865D02*
X167151893Y-106579675D01*
X167175702Y-106603484D01*
X167199512Y-106651103D01*
X167199512Y-106722532D01*
X167175702Y-106770151D01*
X167151893Y-106793960D01*
X167104274Y-106817770D01*
X166913798Y-106817770D01*
X166913798Y-106317770D01*
X167080464Y-106317770D01*
X167128083Y-106341580D01*
X167151893Y-106365389D01*
X167175702Y-106413008D01*
X167175702Y-106460627D01*
X167151893Y-106508246D01*
X167128083Y-106532056D01*
X167080464Y-106555865D01*
X166913798Y-106555865D01*
X167675702Y-106817770D02*
X167389988Y-106817770D01*
X167532845Y-106817770D02*
X167532845Y-106317770D01*
X167485226Y-106389199D01*
X167437607Y-106436818D01*
X167389988Y-106460627D01*
D19*
D21*
X173765238Y-115486190D02*
X174098571Y-115986190D01*
X174098571Y-115486190D02*
X173765238Y-115986190D01*
X174550952Y-115986190D02*
X174265238Y-115986190D01*
X174408095Y-115986190D02*
X174408095Y-115486190D01*
X174360476Y-115557619D01*
X174312857Y-115605238D01*
X174265238Y-115629047D01*
D22*
X175992517Y-110086975D02*
X175992517Y-110002308D01*
X176125564Y-109966022D02*
X176125564Y-110086975D01*
X175871564Y-110086975D01*
X175871564Y-109966022D01*
X176125564Y-109748308D02*
X175871564Y-109748308D01*
X176113469Y-109748308D02*
X176125564Y-109772499D01*
X176125564Y-109820880D01*
X176113469Y-109845070D01*
X176101374Y-109857165D01*
X176077183Y-109869260D01*
X176004612Y-109869260D01*
X175980421Y-109857165D01*
X175968326Y-109845070D01*
X175956231Y-109820880D01*
X175956231Y-109772499D01*
X175968326Y-109748308D01*
X175956231Y-109518499D02*
X176161850Y-109518499D01*
X176186040Y-109530594D01*
X176198136Y-109542689D01*
X176210231Y-109566880D01*
X176210231Y-109603165D01*
X176198136Y-109627356D01*
X176113469Y-109518499D02*
X176125564Y-109542689D01*
X176125564Y-109591070D01*
X176113469Y-109615260D01*
X176101374Y-109627356D01*
X176077183Y-109639451D01*
X176004612Y-109639451D01*
X175980421Y-109627356D01*
X175968326Y-109615260D01*
X175956231Y-109591070D01*
X175956231Y-109542689D01*
X175968326Y-109518499D01*
X176113469Y-109300784D02*
X176125564Y-109324975D01*
X176125564Y-109373356D01*
X176113469Y-109397546D01*
X176089279Y-109409641D01*
X175992517Y-109409641D01*
X175968326Y-109397546D01*
X175956231Y-109373356D01*
X175956231Y-109324975D01*
X175968326Y-109300784D01*
X175992517Y-109288689D01*
X176016707Y-109288689D01*
X176040898Y-109409641D01*
X176125564Y-108950022D02*
X176113469Y-108974213D01*
X176101374Y-108986308D01*
X176077183Y-108998403D01*
X176004612Y-108998403D01*
X175980421Y-108986308D01*
X175968326Y-108974213D01*
X175956231Y-108950022D01*
X175956231Y-108913737D01*
X175968326Y-108889546D01*
X175980421Y-108877451D01*
X176004612Y-108865356D01*
X176077183Y-108865356D01*
X176101374Y-108877451D01*
X176113469Y-108889546D01*
X176125564Y-108913737D01*
X176125564Y-108950022D01*
X175956231Y-108792784D02*
X175956231Y-108696022D01*
X176125564Y-108756499D02*
X175907850Y-108756499D01*
X175883660Y-108744403D01*
X175871564Y-108720213D01*
X175871564Y-108696022D01*
X176125564Y-108417832D02*
X175871564Y-108417832D01*
X175871564Y-108321070D01*
X175883660Y-108296880D01*
X175895755Y-108284784D01*
X175919945Y-108272689D01*
X175956231Y-108272689D01*
X175980421Y-108284784D01*
X175992517Y-108296880D01*
X176004612Y-108321070D01*
X176004612Y-108417832D01*
X176101374Y-108018689D02*
X176113469Y-108030784D01*
X176125564Y-108067070D01*
X176125564Y-108091260D01*
X176113469Y-108127546D01*
X176089279Y-108151737D01*
X176065088Y-108163832D01*
X176016707Y-108175927D01*
X175980421Y-108175927D01*
X175932040Y-108163832D01*
X175907850Y-108151737D01*
X175883660Y-108127546D01*
X175871564Y-108091260D01*
X175871564Y-108067070D01*
X175883660Y-108030784D01*
X175895755Y-108018689D01*
X175992517Y-107825165D02*
X176004612Y-107788880D01*
X176016707Y-107776784D01*
X176040898Y-107764689D01*
X176077183Y-107764689D01*
X176101374Y-107776784D01*
X176113469Y-107788880D01*
X176125564Y-107813070D01*
X176125564Y-107909832D01*
X175871564Y-107909832D01*
X175871564Y-107825165D01*
X175883660Y-107800975D01*
X175895755Y-107788880D01*
X175919945Y-107776784D01*
X175944136Y-107776784D01*
X175968326Y-107788880D01*
X175980421Y-107800975D01*
X175992517Y-107825165D01*
X175992517Y-107909832D01*
D21*
X152960520Y-99139926D02*
X152984330Y-99068498D01*
X152984330Y-98949450D01*
X152960520Y-98901831D01*
X152936711Y-98878021D01*
X152889092Y-98854212D01*
X152841473Y-98854212D01*
X152793854Y-98878021D01*
X152770044Y-98901831D01*
X152746235Y-98949450D01*
X152722425Y-99044688D01*
X152698616Y-99092307D01*
X152674806Y-99116117D01*
X152627187Y-99139926D01*
X152579568Y-99139926D01*
X152531949Y-99116117D01*
X152508140Y-99092307D01*
X152484330Y-99044688D01*
X152484330Y-98925640D01*
X152508140Y-98854212D01*
X152484330Y-98687545D02*
X152984330Y-98568498D01*
X152627187Y-98473260D01*
X152984330Y-98378021D01*
X152484330Y-98258974D01*
X152984330Y-97806593D02*
X152984330Y-98092307D01*
X152984330Y-97949450D02*
X152484330Y-97949450D01*
X152555759Y-97997069D01*
X152603378Y-98044688D01*
X152627187Y-98092307D01*
X136994947Y-110520990D02*
X136994947Y-110925752D01*
X137018757Y-110973371D01*
X137042566Y-110997180D01*
X137090185Y-111020990D01*
X137185423Y-111020990D01*
X137233042Y-110997180D01*
X137256852Y-110973371D01*
X137280661Y-110925752D01*
X137280661Y-110520990D01*
X137471138Y-110520990D02*
X137780661Y-110520990D01*
X137613995Y-110711466D01*
X137685423Y-110711466D01*
X137733042Y-110735276D01*
X137756852Y-110759085D01*
X137780661Y-110806704D01*
X137780661Y-110925752D01*
X137756852Y-110973371D01*
X137733042Y-110997180D01*
X137685423Y-111020990D01*
X137542566Y-111020990D01*
X137494947Y-110997180D01*
X137471138Y-110973371D01*
X138527000Y-96100389D02*
X138479381Y-96076580D01*
X138431762Y-96028960D01*
X138360334Y-95957532D01*
X138312715Y-95933722D01*
X138265096Y-95933722D01*
X138288905Y-96052770D02*
X138241286Y-96028960D01*
X138193667Y-95981341D01*
X138169858Y-95886103D01*
X138169858Y-95719437D01*
X138193667Y-95624199D01*
X138241286Y-95576580D01*
X138288905Y-95552770D01*
X138384143Y-95552770D01*
X138431762Y-95576580D01*
X138479381Y-95624199D01*
X138503191Y-95719437D01*
X138503191Y-95886103D01*
X138479381Y-95981341D01*
X138431762Y-96028960D01*
X138384143Y-96052770D01*
X138288905Y-96052770D01*
X138669858Y-95552770D02*
X138979381Y-95552770D01*
X138812715Y-95743246D01*
X138884143Y-95743246D01*
X138931762Y-95767056D01*
X138955572Y-95790865D01*
X138979381Y-95838484D01*
X138979381Y-95957532D01*
X138955572Y-96005151D01*
X138931762Y-96028960D01*
X138884143Y-96052770D01*
X138741286Y-96052770D01*
X138693667Y-96028960D01*
X138669858Y-96005151D01*
X155933780Y-110789209D02*
X155886161Y-110765400D01*
X155838542Y-110717780D01*
X155767114Y-110646352D01*
X155719495Y-110622542D01*
X155671876Y-110622542D01*
X155695685Y-110741590D02*
X155648066Y-110717780D01*
X155600447Y-110670161D01*
X155576638Y-110574923D01*
X155576638Y-110408257D01*
X155600447Y-110313019D01*
X155648066Y-110265400D01*
X155695685Y-110241590D01*
X155790923Y-110241590D01*
X155838542Y-110265400D01*
X155886161Y-110313019D01*
X155909971Y-110408257D01*
X155909971Y-110574923D01*
X155886161Y-110670161D01*
X155838542Y-110717780D01*
X155790923Y-110741590D01*
X155695685Y-110741590D01*
X156386161Y-110741590D02*
X156100447Y-110741590D01*
X156243304Y-110741590D02*
X156243304Y-110241590D01*
X156195685Y-110313019D01*
X156148066Y-110360638D01*
X156100447Y-110384447D01*
X159545660Y-110758729D02*
X159498041Y-110734920D01*
X159450422Y-110687300D01*
X159378994Y-110615872D01*
X159331375Y-110592062D01*
X159283756Y-110592062D01*
X159307565Y-110711110D02*
X159259946Y-110687300D01*
X159212327Y-110639681D01*
X159188518Y-110544443D01*
X159188518Y-110377777D01*
X159212327Y-110282539D01*
X159259946Y-110234920D01*
X159307565Y-110211110D01*
X159402803Y-110211110D01*
X159450422Y-110234920D01*
X159498041Y-110282539D01*
X159521851Y-110377777D01*
X159521851Y-110544443D01*
X159498041Y-110639681D01*
X159450422Y-110687300D01*
X159402803Y-110711110D01*
X159307565Y-110711110D01*
X159712327Y-110258729D02*
X159736137Y-110234920D01*
X159783756Y-110211110D01*
X159902803Y-110211110D01*
X159950422Y-110234920D01*
X159974232Y-110258729D01*
X159998041Y-110306348D01*
X159998041Y-110353967D01*
X159974232Y-110425396D01*
X159688518Y-110711110D01*
X159998041Y-110711110D01*
X129526552Y-89375110D02*
X129526552Y-88875110D01*
X129717028Y-88875110D01*
X129764647Y-88898920D01*
X129788457Y-88922729D01*
X129812266Y-88970348D01*
X129812266Y-89041777D01*
X129788457Y-89089396D01*
X129764647Y-89113205D01*
X129717028Y-89137015D01*
X129526552Y-89137015D01*
X130002742Y-88922729D02*
X130026552Y-88898920D01*
X130074171Y-88875110D01*
X130193219Y-88875110D01*
X130240838Y-88898920D01*
X130264647Y-88922729D01*
X130288457Y-88970348D01*
X130288457Y-89017967D01*
X130264647Y-89089396D01*
X129978933Y-89375110D01*
X130288457Y-89375110D01*
D15*
M02*
