G04 #@! TF.GenerationSoftware,KiCad,Pcbnew,(5.1.0-218-ge90452d)*
G04 #@! TF.CreationDate,2019-04-22T23:25:45-07:00*
G04 #@! TF.ProjectId,baconbits,6261636f-6e62-4697-9473-2e6b69636164,rev?*
G04 #@! TF.SameCoordinates,Original*
G04 #@! TF.FileFunction,Legend,Bot*
G04 #@! TF.FilePolarity,Positive*
%FSLAX46Y46*%
G04 Gerber Fmt 4.6, Leading zero omitted, Abs format (unit mm)*
G04 Created by KiCad (PCBNEW (5.1.0-218-ge90452d)) date 2019-04-22 23:25:45*
%MOMM*%
%LPD*%
G04 APERTURE LIST*
%ADD10C,0.250000*%
%ADD11C,0.010000*%
G04 APERTURE END LIST*
D10*
X123726919Y-106883033D02*
X124393585Y-106883033D01*
X124298347Y-106883033D02*
X124345966Y-106835414D01*
X124393585Y-106740176D01*
X124393585Y-106597319D01*
X124345966Y-106502080D01*
X124250728Y-106454461D01*
X123726919Y-106454461D01*
X124250728Y-106454461D02*
X124345966Y-106406842D01*
X124393585Y-106311604D01*
X124393585Y-106168747D01*
X124345966Y-106073509D01*
X124250728Y-106025890D01*
X123726919Y-106025890D01*
X123631680Y-105787795D02*
X123631680Y-105025890D01*
X124393585Y-104883033D02*
X123726919Y-104692557D01*
X124203109Y-104502080D01*
X123726919Y-104311604D01*
X124393585Y-104121128D01*
X121976919Y-107906842D02*
X122976919Y-107906842D01*
X122357871Y-107811604D02*
X121976919Y-107525890D01*
X122643585Y-107525890D02*
X122262633Y-107906842D01*
X121976919Y-106668747D02*
X122500728Y-106668747D01*
X122595966Y-106716366D01*
X122643585Y-106811604D01*
X122643585Y-107002080D01*
X122595966Y-107097319D01*
X122024538Y-106668747D02*
X121976919Y-106763985D01*
X121976919Y-107002080D01*
X122024538Y-107097319D01*
X122119776Y-107144938D01*
X122215014Y-107144938D01*
X122310252Y-107097319D01*
X122357871Y-107002080D01*
X122357871Y-106763985D01*
X122405490Y-106668747D01*
X122976919Y-105763985D02*
X122976919Y-105954461D01*
X122929300Y-106049700D01*
X122881680Y-106097319D01*
X122738823Y-106192557D01*
X122548347Y-106240176D01*
X122167395Y-106240176D01*
X122072157Y-106192557D01*
X122024538Y-106144938D01*
X121976919Y-106049700D01*
X121976919Y-105859223D01*
X122024538Y-105763985D01*
X122072157Y-105716366D01*
X122167395Y-105668747D01*
X122405490Y-105668747D01*
X122500728Y-105716366D01*
X122548347Y-105763985D01*
X122595966Y-105859223D01*
X122595966Y-106049700D01*
X122548347Y-106144938D01*
X122500728Y-106192557D01*
X122405490Y-106240176D01*
X122024538Y-105287795D02*
X121976919Y-105192557D01*
X121976919Y-105002080D01*
X122024538Y-104906842D01*
X122119776Y-104859223D01*
X122167395Y-104859223D01*
X122262633Y-104906842D01*
X122310252Y-105002080D01*
X122310252Y-105144938D01*
X122357871Y-105240176D01*
X122453109Y-105287795D01*
X122500728Y-105287795D01*
X122595966Y-105240176D01*
X122643585Y-105144938D01*
X122643585Y-105002080D01*
X122595966Y-104906842D01*
X121976919Y-104287795D02*
X122024538Y-104383033D01*
X122072157Y-104430652D01*
X122167395Y-104478271D01*
X122453109Y-104478271D01*
X122548347Y-104430652D01*
X122595966Y-104383033D01*
X122643585Y-104287795D01*
X122643585Y-104144938D01*
X122595966Y-104049700D01*
X122548347Y-104002080D01*
X122453109Y-103954461D01*
X122167395Y-103954461D01*
X122072157Y-104002080D01*
X122024538Y-104049700D01*
X121976919Y-104144938D01*
X121976919Y-104287795D01*
X121976919Y-103621128D02*
X122643585Y-103097319D01*
X122643585Y-103621128D02*
X121976919Y-103097319D01*
X151415357Y-103448871D02*
X151272500Y-103496490D01*
X151224880Y-103544109D01*
X151177261Y-103639347D01*
X151177261Y-103782204D01*
X151224880Y-103877442D01*
X151272500Y-103925061D01*
X151367738Y-103972680D01*
X151748690Y-103972680D01*
X151748690Y-102972680D01*
X151415357Y-102972680D01*
X151320119Y-103020300D01*
X151272500Y-103067919D01*
X151224880Y-103163157D01*
X151224880Y-103258395D01*
X151272500Y-103353633D01*
X151320119Y-103401252D01*
X151415357Y-103448871D01*
X151748690Y-103448871D01*
X150320119Y-103972680D02*
X150320119Y-103448871D01*
X150367738Y-103353633D01*
X150462976Y-103306014D01*
X150653452Y-103306014D01*
X150748690Y-103353633D01*
X150320119Y-103925061D02*
X150415357Y-103972680D01*
X150653452Y-103972680D01*
X150748690Y-103925061D01*
X150796309Y-103829823D01*
X150796309Y-103734585D01*
X150748690Y-103639347D01*
X150653452Y-103591728D01*
X150415357Y-103591728D01*
X150320119Y-103544109D01*
X149415357Y-103925061D02*
X149510595Y-103972680D01*
X149701071Y-103972680D01*
X149796309Y-103925061D01*
X149843928Y-103877442D01*
X149891547Y-103782204D01*
X149891547Y-103496490D01*
X149843928Y-103401252D01*
X149796309Y-103353633D01*
X149701071Y-103306014D01*
X149510595Y-103306014D01*
X149415357Y-103353633D01*
X148843928Y-103972680D02*
X148939166Y-103925061D01*
X148986785Y-103877442D01*
X149034404Y-103782204D01*
X149034404Y-103496490D01*
X148986785Y-103401252D01*
X148939166Y-103353633D01*
X148843928Y-103306014D01*
X148701071Y-103306014D01*
X148605833Y-103353633D01*
X148558214Y-103401252D01*
X148510595Y-103496490D01*
X148510595Y-103782204D01*
X148558214Y-103877442D01*
X148605833Y-103925061D01*
X148701071Y-103972680D01*
X148843928Y-103972680D01*
X148082023Y-103306014D02*
X148082023Y-103972680D01*
X148082023Y-103401252D02*
X148034404Y-103353633D01*
X147939166Y-103306014D01*
X147796309Y-103306014D01*
X147701071Y-103353633D01*
X147653452Y-103448871D01*
X147653452Y-103972680D01*
X146843928Y-103448871D02*
X146701071Y-103496490D01*
X146653452Y-103544109D01*
X146605833Y-103639347D01*
X146605833Y-103782204D01*
X146653452Y-103877442D01*
X146701071Y-103925061D01*
X146796309Y-103972680D01*
X147177261Y-103972680D01*
X147177261Y-102972680D01*
X146843928Y-102972680D01*
X146748690Y-103020300D01*
X146701071Y-103067919D01*
X146653452Y-103163157D01*
X146653452Y-103258395D01*
X146701071Y-103353633D01*
X146748690Y-103401252D01*
X146843928Y-103448871D01*
X147177261Y-103448871D01*
X146177261Y-103972680D02*
X146177261Y-103306014D01*
X146177261Y-102972680D02*
X146224880Y-103020300D01*
X146177261Y-103067919D01*
X146129642Y-103020300D01*
X146177261Y-102972680D01*
X146177261Y-103067919D01*
X145843928Y-103306014D02*
X145462976Y-103306014D01*
X145701071Y-102972680D02*
X145701071Y-103829823D01*
X145653452Y-103925061D01*
X145558214Y-103972680D01*
X145462976Y-103972680D01*
X145177261Y-103925061D02*
X145082023Y-103972680D01*
X144891547Y-103972680D01*
X144796309Y-103925061D01*
X144748690Y-103829823D01*
X144748690Y-103782204D01*
X144796309Y-103686966D01*
X144891547Y-103639347D01*
X145034404Y-103639347D01*
X145129642Y-103591728D01*
X145177261Y-103496490D01*
X145177261Y-103448871D01*
X145129642Y-103353633D01*
X145034404Y-103306014D01*
X144891547Y-103306014D01*
X144796309Y-103353633D01*
X149867738Y-105722680D02*
X150201071Y-105246490D01*
X150439166Y-105722680D02*
X150439166Y-104722680D01*
X150058214Y-104722680D01*
X149962976Y-104770300D01*
X149915357Y-104817919D01*
X149867738Y-104913157D01*
X149867738Y-105056014D01*
X149915357Y-105151252D01*
X149962976Y-105198871D01*
X150058214Y-105246490D01*
X150439166Y-105246490D01*
X149058214Y-105675061D02*
X149153452Y-105722680D01*
X149343928Y-105722680D01*
X149439166Y-105675061D01*
X149486785Y-105579823D01*
X149486785Y-105198871D01*
X149439166Y-105103633D01*
X149343928Y-105056014D01*
X149153452Y-105056014D01*
X149058214Y-105103633D01*
X149010595Y-105198871D01*
X149010595Y-105294109D01*
X149486785Y-105389347D01*
X148677261Y-105056014D02*
X148439166Y-105722680D01*
X148201071Y-105056014D01*
X147820119Y-105627442D02*
X147772500Y-105675061D01*
X147820119Y-105722680D01*
X147867738Y-105675061D01*
X147820119Y-105627442D01*
X147820119Y-105722680D01*
X146629642Y-104817919D02*
X146582023Y-104770300D01*
X146486785Y-104722680D01*
X146248690Y-104722680D01*
X146153452Y-104770300D01*
X146105833Y-104817919D01*
X146058214Y-104913157D01*
X146058214Y-105008395D01*
X146105833Y-105151252D01*
X146677261Y-105722680D01*
X146058214Y-105722680D01*
X152891547Y-106472680D02*
X152796309Y-106472680D01*
X152701071Y-106520300D01*
X152653452Y-106567919D01*
X152605833Y-106663157D01*
X152558214Y-106853633D01*
X152558214Y-107091728D01*
X152605833Y-107282204D01*
X152653452Y-107377442D01*
X152701071Y-107425061D01*
X152796309Y-107472680D01*
X152891547Y-107472680D01*
X152986785Y-107425061D01*
X153034404Y-107377442D01*
X153082023Y-107282204D01*
X153129642Y-107091728D01*
X153129642Y-106853633D01*
X153082023Y-106663157D01*
X153034404Y-106567919D01*
X152986785Y-106520300D01*
X152891547Y-106472680D01*
X151701071Y-106806014D02*
X151701071Y-107472680D01*
X151939166Y-106425061D02*
X152177261Y-107139347D01*
X151558214Y-107139347D01*
X151177261Y-107091728D02*
X150415357Y-107091728D01*
X149986785Y-106567919D02*
X149939166Y-106520300D01*
X149843928Y-106472680D01*
X149605833Y-106472680D01*
X149510595Y-106520300D01*
X149462976Y-106567919D01*
X149415357Y-106663157D01*
X149415357Y-106758395D01*
X149462976Y-106901252D01*
X150034404Y-107472680D01*
X149415357Y-107472680D01*
X148796309Y-106472680D02*
X148701071Y-106472680D01*
X148605833Y-106520300D01*
X148558214Y-106567919D01*
X148510595Y-106663157D01*
X148462976Y-106853633D01*
X148462976Y-107091728D01*
X148510595Y-107282204D01*
X148558214Y-107377442D01*
X148605833Y-107425061D01*
X148701071Y-107472680D01*
X148796309Y-107472680D01*
X148891547Y-107425061D01*
X148939166Y-107377442D01*
X148986785Y-107282204D01*
X149034404Y-107091728D01*
X149034404Y-106853633D01*
X148986785Y-106663157D01*
X148939166Y-106567919D01*
X148891547Y-106520300D01*
X148796309Y-106472680D01*
X148034404Y-107091728D02*
X147272500Y-107091728D01*
X146843928Y-106567919D02*
X146796309Y-106520300D01*
X146701071Y-106472680D01*
X146462976Y-106472680D01*
X146367738Y-106520300D01*
X146320119Y-106567919D01*
X146272500Y-106663157D01*
X146272500Y-106758395D01*
X146320119Y-106901252D01*
X146891547Y-107472680D01*
X146272500Y-107472680D01*
X145653452Y-106472680D02*
X145558214Y-106472680D01*
X145462976Y-106520300D01*
X145415357Y-106567919D01*
X145367738Y-106663157D01*
X145320119Y-106853633D01*
X145320119Y-107091728D01*
X145367738Y-107282204D01*
X145415357Y-107377442D01*
X145462976Y-107425061D01*
X145558214Y-107472680D01*
X145653452Y-107472680D01*
X145748690Y-107425061D01*
X145796309Y-107377442D01*
X145843928Y-107282204D01*
X145891547Y-107091728D01*
X145891547Y-106853633D01*
X145843928Y-106663157D01*
X145796309Y-106567919D01*
X145748690Y-106520300D01*
X145653452Y-106472680D01*
X144367738Y-107472680D02*
X144939166Y-107472680D01*
X144653452Y-107472680D02*
X144653452Y-106472680D01*
X144748690Y-106615538D01*
X144843928Y-106710776D01*
X144939166Y-106758395D01*
X143891547Y-107472680D02*
X143701071Y-107472680D01*
X143605833Y-107425061D01*
X143558214Y-107377442D01*
X143462976Y-107234585D01*
X143415357Y-107044109D01*
X143415357Y-106663157D01*
X143462976Y-106567919D01*
X143510595Y-106520300D01*
X143605833Y-106472680D01*
X143796309Y-106472680D01*
X143891547Y-106520300D01*
X143939166Y-106567919D01*
X143986785Y-106663157D01*
X143986785Y-106901252D01*
X143939166Y-106996490D01*
X143891547Y-107044109D01*
X143796309Y-107091728D01*
X143605833Y-107091728D01*
X143510595Y-107044109D01*
X143462976Y-106996490D01*
X143415357Y-106901252D01*
D11*
G36*
X137734609Y-98796517D02*
G01*
X137638366Y-98945700D01*
X137544661Y-99095165D01*
X137379145Y-99152344D01*
X137259462Y-99157367D01*
X137058160Y-99172920D01*
X136975366Y-99243088D01*
X136961033Y-99369033D01*
X136982830Y-99511582D01*
X137081320Y-99570381D01*
X137260791Y-99580700D01*
X137560548Y-99580700D01*
X137511366Y-100977700D01*
X137236200Y-101058709D01*
X137034439Y-101152035D01*
X136963077Y-101293032D01*
X136961033Y-101333875D01*
X136975959Y-101445764D01*
X137048284Y-101503778D01*
X137219325Y-101525326D01*
X137421899Y-101528033D01*
X137710021Y-101515147D01*
X137884503Y-101464949D01*
X137999853Y-101360135D01*
X138014566Y-101339861D01*
X138069641Y-101225304D01*
X138107767Y-101047291D01*
X138131530Y-100778431D01*
X138143513Y-100391333D01*
X138146366Y-99942861D01*
X138146366Y-98734033D01*
X137932604Y-98734033D01*
X137734609Y-98796517D01*
G37*
X137734609Y-98796517D02*
X137638366Y-98945700D01*
X137544661Y-99095165D01*
X137379145Y-99152344D01*
X137259462Y-99157367D01*
X137058160Y-99172920D01*
X136975366Y-99243088D01*
X136961033Y-99369033D01*
X136982830Y-99511582D01*
X137081320Y-99570381D01*
X137260791Y-99580700D01*
X137560548Y-99580700D01*
X137511366Y-100977700D01*
X137236200Y-101058709D01*
X137034439Y-101152035D01*
X136963077Y-101293032D01*
X136961033Y-101333875D01*
X136975959Y-101445764D01*
X137048284Y-101503778D01*
X137219325Y-101525326D01*
X137421899Y-101528033D01*
X137710021Y-101515147D01*
X137884503Y-101464949D01*
X137999853Y-101360135D01*
X138014566Y-101339861D01*
X138069641Y-101225304D01*
X138107767Y-101047291D01*
X138131530Y-100778431D01*
X138143513Y-100391333D01*
X138146366Y-99942861D01*
X138146366Y-98734033D01*
X137932604Y-98734033D01*
X137734609Y-98796517D01*
G36*
X139134409Y-99193310D02*
G01*
X138847924Y-99295340D01*
X138794822Y-99331242D01*
X138596773Y-99572937D01*
X138457536Y-99903744D01*
X138406271Y-100246059D01*
X138413358Y-100346421D01*
X138435090Y-100443848D01*
X138489097Y-100506193D01*
X138608600Y-100542890D01*
X138826819Y-100563376D01*
X139176973Y-100577084D01*
X139231449Y-100578784D01*
X139602498Y-100593761D01*
X139833733Y-100615160D01*
X139954672Y-100649550D01*
X139994836Y-100703500D01*
X139992417Y-100748118D01*
X139886645Y-100887366D01*
X139656999Y-100992727D01*
X139347634Y-101051283D01*
X139002705Y-101050115D01*
X138971866Y-101046693D01*
X138569700Y-100998218D01*
X138569700Y-101528033D01*
X139183533Y-101524719D01*
X139532784Y-101506685D01*
X139852146Y-101462685D01*
X140067054Y-101404110D01*
X140333799Y-101204436D01*
X140518566Y-100900229D01*
X140619325Y-100533064D01*
X140634050Y-100144515D01*
X140598609Y-99966501D01*
X140009033Y-99966501D01*
X139965362Y-100038217D01*
X139814632Y-100076563D01*
X139527263Y-100088653D01*
X139501033Y-100088700D01*
X139230443Y-100075847D01*
X139046993Y-100042269D01*
X138993033Y-100004033D01*
X139059614Y-99861787D01*
X139215606Y-99708237D01*
X139395385Y-99600175D01*
X139482194Y-99580700D01*
X139679943Y-99632682D01*
X139872309Y-99756922D01*
X139994349Y-99905861D01*
X140009033Y-99966501D01*
X140598609Y-99966501D01*
X140560712Y-99776159D01*
X140397282Y-99469570D01*
X140170645Y-99280374D01*
X139862694Y-99183353D01*
X139494974Y-99155157D01*
X139134409Y-99193310D01*
G37*
X139134409Y-99193310D02*
X138847924Y-99295340D01*
X138794822Y-99331242D01*
X138596773Y-99572937D01*
X138457536Y-99903744D01*
X138406271Y-100246059D01*
X138413358Y-100346421D01*
X138435090Y-100443848D01*
X138489097Y-100506193D01*
X138608600Y-100542890D01*
X138826819Y-100563376D01*
X139176973Y-100577084D01*
X139231449Y-100578784D01*
X139602498Y-100593761D01*
X139833733Y-100615160D01*
X139954672Y-100649550D01*
X139994836Y-100703500D01*
X139992417Y-100748118D01*
X139886645Y-100887366D01*
X139656999Y-100992727D01*
X139347634Y-101051283D01*
X139002705Y-101050115D01*
X138971866Y-101046693D01*
X138569700Y-100998218D01*
X138569700Y-101528033D01*
X139183533Y-101524719D01*
X139532784Y-101506685D01*
X139852146Y-101462685D01*
X140067054Y-101404110D01*
X140333799Y-101204436D01*
X140518566Y-100900229D01*
X140619325Y-100533064D01*
X140634050Y-100144515D01*
X140598609Y-99966501D01*
X140009033Y-99966501D01*
X139965362Y-100038217D01*
X139814632Y-100076563D01*
X139527263Y-100088653D01*
X139501033Y-100088700D01*
X139230443Y-100075847D01*
X139046993Y-100042269D01*
X138993033Y-100004033D01*
X139059614Y-99861787D01*
X139215606Y-99708237D01*
X139395385Y-99600175D01*
X139482194Y-99580700D01*
X139679943Y-99632682D01*
X139872309Y-99756922D01*
X139994349Y-99905861D01*
X140009033Y-99966501D01*
X140598609Y-99966501D01*
X140560712Y-99776159D01*
X140397282Y-99469570D01*
X140170645Y-99280374D01*
X139862694Y-99183353D01*
X139494974Y-99155157D01*
X139134409Y-99193310D01*
G36*
X148058740Y-99996298D02*
G01*
X148058877Y-100362762D01*
X148048554Y-100668323D01*
X148029726Y-100871519D01*
X148014814Y-100927631D01*
X147887081Y-100997381D01*
X147668032Y-101016764D01*
X147428165Y-100985323D01*
X147284800Y-100932388D01*
X147209195Y-100874106D01*
X147160992Y-100774367D01*
X147134227Y-100599251D01*
X147122936Y-100314837D01*
X147121033Y-100001054D01*
X147121033Y-99157367D01*
X146528366Y-99157367D01*
X146528366Y-101528033D01*
X146782366Y-101528033D01*
X146984019Y-101490169D01*
X147036366Y-101401033D01*
X147045604Y-101303804D01*
X147101550Y-101286839D01*
X147246556Y-101350067D01*
X147344189Y-101400512D01*
X147618952Y-101491198D01*
X147938543Y-101523555D01*
X148232584Y-101496155D01*
X148413372Y-101422200D01*
X148553719Y-101262176D01*
X148649405Y-101015549D01*
X148705889Y-100657742D01*
X148728634Y-100164179D01*
X148729700Y-99998521D01*
X148729700Y-99157367D01*
X148045557Y-99157367D01*
X148058740Y-99996298D01*
G37*
X148058740Y-99996298D02*
X148058877Y-100362762D01*
X148048554Y-100668323D01*
X148029726Y-100871519D01*
X148014814Y-100927631D01*
X147887081Y-100997381D01*
X147668032Y-101016764D01*
X147428165Y-100985323D01*
X147284800Y-100932388D01*
X147209195Y-100874106D01*
X147160992Y-100774367D01*
X147134227Y-100599251D01*
X147122936Y-100314837D01*
X147121033Y-100001054D01*
X147121033Y-99157367D01*
X146528366Y-99157367D01*
X146528366Y-101528033D01*
X146782366Y-101528033D01*
X146984019Y-101490169D01*
X147036366Y-101401033D01*
X147045604Y-101303804D01*
X147101550Y-101286839D01*
X147246556Y-101350067D01*
X147344189Y-101400512D01*
X147618952Y-101491198D01*
X147938543Y-101523555D01*
X148232584Y-101496155D01*
X148413372Y-101422200D01*
X148553719Y-101262176D01*
X148649405Y-101015549D01*
X148705889Y-100657742D01*
X148728634Y-100164179D01*
X148729700Y-99998521D01*
X148729700Y-99157367D01*
X148045557Y-99157367D01*
X148058740Y-99996298D01*
G36*
X149827084Y-99176104D02*
G01*
X149539584Y-99239923D01*
X149278678Y-99425138D01*
X149090973Y-99736445D01*
X148993731Y-100140108D01*
X148984016Y-100325738D01*
X149041018Y-100808373D01*
X149212133Y-101168294D01*
X149488928Y-101399600D01*
X149781689Y-101488555D01*
X150154005Y-101520141D01*
X150529831Y-101494585D01*
X150833122Y-101412115D01*
X150866469Y-101395497D01*
X151138486Y-101154108D01*
X151302800Y-100789215D01*
X151345966Y-100415430D01*
X150761530Y-100415430D01*
X150687000Y-100707035D01*
X150553882Y-100896882D01*
X150361737Y-101040034D01*
X150178502Y-101104421D01*
X150169033Y-101104700D01*
X149989575Y-101047187D01*
X149795211Y-100907670D01*
X149784185Y-100896882D01*
X149623659Y-100641336D01*
X149574221Y-100343631D01*
X149623384Y-100046470D01*
X149758663Y-99792556D01*
X149967569Y-99624594D01*
X150169033Y-99580700D01*
X150425777Y-99654222D01*
X150618433Y-99846320D01*
X150734512Y-100114290D01*
X150761530Y-100415430D01*
X151345966Y-100415430D01*
X151354366Y-100342700D01*
X151295837Y-99869176D01*
X151122292Y-99512652D01*
X150849138Y-99285800D01*
X150567041Y-99199019D01*
X150200302Y-99161541D01*
X149827084Y-99176104D01*
G37*
X149827084Y-99176104D02*
X149539584Y-99239923D01*
X149278678Y-99425138D01*
X149090973Y-99736445D01*
X148993731Y-100140108D01*
X148984016Y-100325738D01*
X149041018Y-100808373D01*
X149212133Y-101168294D01*
X149488928Y-101399600D01*
X149781689Y-101488555D01*
X150154005Y-101520141D01*
X150529831Y-101494585D01*
X150833122Y-101412115D01*
X150866469Y-101395497D01*
X151138486Y-101154108D01*
X151302800Y-100789215D01*
X151345966Y-100415430D01*
X150761530Y-100415430D01*
X150687000Y-100707035D01*
X150553882Y-100896882D01*
X150361737Y-101040034D01*
X150178502Y-101104421D01*
X150169033Y-101104700D01*
X149989575Y-101047187D01*
X149795211Y-100907670D01*
X149784185Y-100896882D01*
X149623659Y-100641336D01*
X149574221Y-100343631D01*
X149623384Y-100046470D01*
X149758663Y-99792556D01*
X149967569Y-99624594D01*
X150169033Y-99580700D01*
X150425777Y-99654222D01*
X150618433Y-99846320D01*
X150734512Y-100114290D01*
X150761530Y-100415430D01*
X151345966Y-100415430D01*
X151354366Y-100342700D01*
X151295837Y-99869176D01*
X151122292Y-99512652D01*
X150849138Y-99285800D01*
X150567041Y-99199019D01*
X150200302Y-99161541D01*
X149827084Y-99176104D01*
G36*
X152229916Y-99201766D02*
G01*
X152147451Y-99283150D01*
X152093940Y-99363512D01*
X151997620Y-99335008D01*
X151919603Y-99283150D01*
X151681215Y-99164001D01*
X151517054Y-99183203D01*
X151442089Y-99337307D01*
X151439033Y-99393858D01*
X151471060Y-99570371D01*
X151599515Y-99671666D01*
X151714200Y-99711358D01*
X151989366Y-99792367D01*
X152037624Y-101528033D01*
X152624366Y-101528033D01*
X152624366Y-99157367D01*
X152410043Y-99157367D01*
X152229916Y-99201766D01*
G37*
X152229916Y-99201766D02*
X152147451Y-99283150D01*
X152093940Y-99363512D01*
X151997620Y-99335008D01*
X151919603Y-99283150D01*
X151681215Y-99164001D01*
X151517054Y-99183203D01*
X151442089Y-99337307D01*
X151439033Y-99393858D01*
X151471060Y-99570371D01*
X151599515Y-99671666D01*
X151714200Y-99711358D01*
X151989366Y-99792367D01*
X152037624Y-101528033D01*
X152624366Y-101528033D01*
X152624366Y-99157367D01*
X152410043Y-99157367D01*
X152229916Y-99201766D01*
G36*
X135225366Y-99141099D02*
G01*
X135004761Y-99195576D01*
X134901029Y-99284404D01*
X134862188Y-99454639D01*
X134860502Y-99471373D01*
X134851917Y-99650308D01*
X134905562Y-99706520D01*
X135067199Y-99674230D01*
X135113943Y-99660899D01*
X135521279Y-99587867D01*
X135867327Y-99610351D01*
X136073822Y-99698538D01*
X136176572Y-99833375D01*
X136131534Y-99956195D01*
X135960094Y-100047594D01*
X135683635Y-100088168D01*
X135643845Y-100088700D01*
X135214172Y-100130633D01*
X134921696Y-100259670D01*
X134755596Y-100480661D01*
X134752565Y-100488467D01*
X134699884Y-100793285D01*
X134747977Y-101097031D01*
X134882418Y-101334840D01*
X134954157Y-101395076D01*
X135180327Y-101485762D01*
X135496123Y-101551027D01*
X135822390Y-101579168D01*
X136072033Y-101560380D01*
X136299908Y-101509408D01*
X136431866Y-101480790D01*
X136572549Y-101407958D01*
X136620839Y-101238871D01*
X136622366Y-101178695D01*
X136605706Y-101001817D01*
X136538699Y-100957442D01*
X136474200Y-100975615D01*
X136305062Y-101018660D01*
X136043634Y-101061775D01*
X135900137Y-101079265D01*
X135566309Y-101078427D01*
X135360382Y-100996691D01*
X135293885Y-100840883D01*
X135317631Y-100734431D01*
X135401612Y-100647078D01*
X135590577Y-100604798D01*
X135815674Y-100596700D01*
X136232067Y-100551162D01*
X136513181Y-100409709D01*
X136668003Y-100165084D01*
X136707033Y-99877033D01*
X136682401Y-99606252D01*
X136589792Y-99428836D01*
X136496359Y-99342607D01*
X136203065Y-99197256D01*
X135811180Y-99119776D01*
X135381097Y-99119743D01*
X135225366Y-99141099D01*
G37*
X135225366Y-99141099D02*
X135004761Y-99195576D01*
X134901029Y-99284404D01*
X134862188Y-99454639D01*
X134860502Y-99471373D01*
X134851917Y-99650308D01*
X134905562Y-99706520D01*
X135067199Y-99674230D01*
X135113943Y-99660899D01*
X135521279Y-99587867D01*
X135867327Y-99610351D01*
X136073822Y-99698538D01*
X136176572Y-99833375D01*
X136131534Y-99956195D01*
X135960094Y-100047594D01*
X135683635Y-100088168D01*
X135643845Y-100088700D01*
X135214172Y-100130633D01*
X134921696Y-100259670D01*
X134755596Y-100480661D01*
X134752565Y-100488467D01*
X134699884Y-100793285D01*
X134747977Y-101097031D01*
X134882418Y-101334840D01*
X134954157Y-101395076D01*
X135180327Y-101485762D01*
X135496123Y-101551027D01*
X135822390Y-101579168D01*
X136072033Y-101560380D01*
X136299908Y-101509408D01*
X136431866Y-101480790D01*
X136572549Y-101407958D01*
X136620839Y-101238871D01*
X136622366Y-101178695D01*
X136605706Y-101001817D01*
X136538699Y-100957442D01*
X136474200Y-100975615D01*
X136305062Y-101018660D01*
X136043634Y-101061775D01*
X135900137Y-101079265D01*
X135566309Y-101078427D01*
X135360382Y-100996691D01*
X135293885Y-100840883D01*
X135317631Y-100734431D01*
X135401612Y-100647078D01*
X135590577Y-100604798D01*
X135815674Y-100596700D01*
X136232067Y-100551162D01*
X136513181Y-100409709D01*
X136668003Y-100165084D01*
X136707033Y-99877033D01*
X136682401Y-99606252D01*
X136589792Y-99428836D01*
X136496359Y-99342607D01*
X136203065Y-99197256D01*
X135811180Y-99119776D01*
X135381097Y-99119743D01*
X135225366Y-99141099D01*
G36*
X141279033Y-98285483D02*
G01*
X141074007Y-98362338D01*
X140982384Y-98487693D01*
X140955315Y-98644522D01*
X140952809Y-98833898D01*
X141005240Y-98889747D01*
X141050324Y-98879289D01*
X141440459Y-98783224D01*
X141861895Y-98765523D01*
X142263212Y-98820543D01*
X142592990Y-98942645D01*
X142754893Y-99066283D01*
X142936813Y-99383486D01*
X143007102Y-99771604D01*
X142969402Y-100177515D01*
X142827358Y-100548096D01*
X142636859Y-100787200D01*
X142425875Y-100939970D01*
X142194526Y-101007853D01*
X141955031Y-101020033D01*
X141533033Y-101020033D01*
X141533033Y-100004033D01*
X140940366Y-100004033D01*
X140940366Y-100717994D01*
X140945255Y-101074133D01*
X140964375Y-101295202D01*
X141004410Y-101415297D01*
X141072044Y-101468515D01*
X141088533Y-101473870D01*
X141397069Y-101531065D01*
X141778377Y-101561820D01*
X142148506Y-101562109D01*
X142387736Y-101536193D01*
X142872347Y-101374653D01*
X143232162Y-101107341D01*
X143474741Y-100724935D01*
X143607642Y-100218112D01*
X143630045Y-100004064D01*
X143614497Y-99448023D01*
X143476945Y-99003935D01*
X143213101Y-98662025D01*
X142963366Y-98485148D01*
X142597052Y-98342871D01*
X142143315Y-98256406D01*
X141677445Y-98234678D01*
X141279033Y-98285483D01*
G37*
X141279033Y-98285483D02*
X141074007Y-98362338D01*
X140982384Y-98487693D01*
X140955315Y-98644522D01*
X140952809Y-98833898D01*
X141005240Y-98889747D01*
X141050324Y-98879289D01*
X141440459Y-98783224D01*
X141861895Y-98765523D01*
X142263212Y-98820543D01*
X142592990Y-98942645D01*
X142754893Y-99066283D01*
X142936813Y-99383486D01*
X143007102Y-99771604D01*
X142969402Y-100177515D01*
X142827358Y-100548096D01*
X142636859Y-100787200D01*
X142425875Y-100939970D01*
X142194526Y-101007853D01*
X141955031Y-101020033D01*
X141533033Y-101020033D01*
X141533033Y-100004033D01*
X140940366Y-100004033D01*
X140940366Y-100717994D01*
X140945255Y-101074133D01*
X140964375Y-101295202D01*
X141004410Y-101415297D01*
X141072044Y-101468515D01*
X141088533Y-101473870D01*
X141397069Y-101531065D01*
X141778377Y-101561820D01*
X142148506Y-101562109D01*
X142387736Y-101536193D01*
X142872347Y-101374653D01*
X143232162Y-101107341D01*
X143474741Y-100724935D01*
X143607642Y-100218112D01*
X143630045Y-100004064D01*
X143614497Y-99448023D01*
X143476945Y-99003935D01*
X143213101Y-98662025D01*
X142963366Y-98485148D01*
X142597052Y-98342871D01*
X142143315Y-98256406D01*
X141677445Y-98234678D01*
X141279033Y-98285483D01*
G36*
X153641108Y-98248547D02*
G01*
X153280533Y-98315152D01*
X153071069Y-98390923D01*
X152981234Y-98494829D01*
X152963033Y-98663221D01*
X152978623Y-98840287D01*
X153050290Y-98889551D01*
X153153533Y-98869761D01*
X153745860Y-98754302D01*
X154234263Y-98766827D01*
X154615167Y-98905332D01*
X154884998Y-99167814D01*
X155040181Y-99552271D01*
X155079383Y-99949000D01*
X155069553Y-100244059D01*
X155022668Y-100439321D01*
X154913346Y-100603919D01*
X154791833Y-100732167D01*
X154588450Y-100911194D01*
X154397643Y-100995908D01*
X154136528Y-101019659D01*
X154076392Y-101020033D01*
X153648817Y-101020033D01*
X153598033Y-100046367D01*
X153005366Y-100046367D01*
X152980725Y-100697695D01*
X152973520Y-101037193D01*
X152987947Y-101246483D01*
X153030696Y-101364029D01*
X153107725Y-101427915D01*
X153325509Y-101494839D01*
X153646115Y-101541933D01*
X154003672Y-101564079D01*
X154332310Y-101556158D01*
X154487033Y-101535089D01*
X154959700Y-101384398D01*
X155303945Y-101143175D01*
X155541564Y-100789179D01*
X155693563Y-100303951D01*
X155742096Y-99750729D01*
X155653914Y-99254049D01*
X155439815Y-98835087D01*
X155110593Y-98515018D01*
X154679847Y-98315791D01*
X154179416Y-98236935D01*
X153641108Y-98248547D01*
G37*
X153641108Y-98248547D02*
X153280533Y-98315152D01*
X153071069Y-98390923D01*
X152981234Y-98494829D01*
X152963033Y-98663221D01*
X152978623Y-98840287D01*
X153050290Y-98889551D01*
X153153533Y-98869761D01*
X153745860Y-98754302D01*
X154234263Y-98766827D01*
X154615167Y-98905332D01*
X154884998Y-99167814D01*
X155040181Y-99552271D01*
X155079383Y-99949000D01*
X155069553Y-100244059D01*
X155022668Y-100439321D01*
X154913346Y-100603919D01*
X154791833Y-100732167D01*
X154588450Y-100911194D01*
X154397643Y-100995908D01*
X154136528Y-101019659D01*
X154076392Y-101020033D01*
X153648817Y-101020033D01*
X153598033Y-100046367D01*
X153005366Y-100046367D01*
X152980725Y-100697695D01*
X152973520Y-101037193D01*
X152987947Y-101246483D01*
X153030696Y-101364029D01*
X153107725Y-101427915D01*
X153325509Y-101494839D01*
X153646115Y-101541933D01*
X154003672Y-101564079D01*
X154332310Y-101556158D01*
X154487033Y-101535089D01*
X154959700Y-101384398D01*
X155303945Y-101143175D01*
X155541564Y-100789179D01*
X155693563Y-100303951D01*
X155742096Y-99750729D01*
X155653914Y-99254049D01*
X155439815Y-98835087D01*
X155110593Y-98515018D01*
X154679847Y-98315791D01*
X154179416Y-98236935D01*
X153641108Y-98248547D01*
G36*
X158979530Y-98079321D02*
G01*
X158534640Y-98317809D01*
X158417394Y-98412553D01*
X158210306Y-98624317D01*
X158037209Y-98853665D01*
X157924179Y-99059033D01*
X157897290Y-99198856D01*
X157909790Y-99221679D01*
X157980403Y-99238201D01*
X157983055Y-99234978D01*
X158039357Y-99148922D01*
X158155065Y-98969314D01*
X158231468Y-98850124D01*
X158551754Y-98491969D01*
X158951076Y-98260618D01*
X159396852Y-98155539D01*
X159856500Y-98176198D01*
X160297438Y-98322061D01*
X160687081Y-98592597D01*
X160937389Y-98894401D01*
X161075994Y-99130947D01*
X161146987Y-99334403D01*
X161167264Y-99577056D01*
X161158682Y-99841177D01*
X161134206Y-100142047D01*
X161082050Y-100367615D01*
X160977564Y-100581192D01*
X160796099Y-100846091D01*
X160735418Y-100928288D01*
X160501720Y-101281947D01*
X160340720Y-101605735D01*
X160285414Y-101789644D01*
X160229482Y-102120700D01*
X158891701Y-102120700D01*
X158838570Y-101788436D01*
X158743251Y-101503638D01*
X158551690Y-101158808D01*
X158415126Y-100962936D01*
X158234184Y-100713944D01*
X158101999Y-100516828D01*
X158044561Y-100410568D01*
X158043923Y-100406200D01*
X157977923Y-100344417D01*
X157958366Y-100342700D01*
X157886349Y-100371600D01*
X157899935Y-100470501D01*
X158007352Y-100657704D01*
X158216831Y-100951510D01*
X158255080Y-101002603D01*
X158511147Y-101387997D01*
X158652665Y-101721694D01*
X158689922Y-101899992D01*
X158743383Y-102290033D01*
X160390683Y-102290033D01*
X160444780Y-101895357D01*
X160553970Y-101516294D01*
X160790601Y-101123623D01*
X160831415Y-101069648D01*
X161095265Y-100696249D01*
X161253666Y-100378398D01*
X161328587Y-100060115D01*
X161343174Y-99765688D01*
X161266881Y-99248917D01*
X161060381Y-98804175D01*
X160749525Y-98443416D01*
X160360161Y-98178596D01*
X159918141Y-98021670D01*
X159449314Y-97984593D01*
X158979530Y-98079321D01*
G37*
X158979530Y-98079321D02*
X158534640Y-98317809D01*
X158417394Y-98412553D01*
X158210306Y-98624317D01*
X158037209Y-98853665D01*
X157924179Y-99059033D01*
X157897290Y-99198856D01*
X157909790Y-99221679D01*
X157980403Y-99238201D01*
X157983055Y-99234978D01*
X158039357Y-99148922D01*
X158155065Y-98969314D01*
X158231468Y-98850124D01*
X158551754Y-98491969D01*
X158951076Y-98260618D01*
X159396852Y-98155539D01*
X159856500Y-98176198D01*
X160297438Y-98322061D01*
X160687081Y-98592597D01*
X160937389Y-98894401D01*
X161075994Y-99130947D01*
X161146987Y-99334403D01*
X161167264Y-99577056D01*
X161158682Y-99841177D01*
X161134206Y-100142047D01*
X161082050Y-100367615D01*
X160977564Y-100581192D01*
X160796099Y-100846091D01*
X160735418Y-100928288D01*
X160501720Y-101281947D01*
X160340720Y-101605735D01*
X160285414Y-101789644D01*
X160229482Y-102120700D01*
X158891701Y-102120700D01*
X158838570Y-101788436D01*
X158743251Y-101503638D01*
X158551690Y-101158808D01*
X158415126Y-100962936D01*
X158234184Y-100713944D01*
X158101999Y-100516828D01*
X158044561Y-100410568D01*
X158043923Y-100406200D01*
X157977923Y-100344417D01*
X157958366Y-100342700D01*
X157886349Y-100371600D01*
X157899935Y-100470501D01*
X158007352Y-100657704D01*
X158216831Y-100951510D01*
X158255080Y-101002603D01*
X158511147Y-101387997D01*
X158652665Y-101721694D01*
X158689922Y-101899992D01*
X158743383Y-102290033D01*
X160390683Y-102290033D01*
X160444780Y-101895357D01*
X160553970Y-101516294D01*
X160790601Y-101123623D01*
X160831415Y-101069648D01*
X161095265Y-100696249D01*
X161253666Y-100378398D01*
X161328587Y-100060115D01*
X161343174Y-99765688D01*
X161266881Y-99248917D01*
X161060381Y-98804175D01*
X160749525Y-98443416D01*
X160360161Y-98178596D01*
X159918141Y-98021670D01*
X159449314Y-97984593D01*
X158979530Y-98079321D01*
G36*
X144235236Y-99476202D02*
G01*
X144094618Y-99655660D01*
X144020169Y-99833537D01*
X143991856Y-100075180D01*
X143988683Y-100280536D01*
X144039034Y-100781961D01*
X144192399Y-101150255D01*
X144453271Y-101390010D01*
X144826142Y-101505816D01*
X145194919Y-101513240D01*
X145597138Y-101485700D01*
X145597086Y-101972533D01*
X145597033Y-102459367D01*
X146193356Y-102459367D01*
X146170361Y-100829533D01*
X146162696Y-100286255D01*
X145597033Y-100286255D01*
X145589833Y-100595968D01*
X145570847Y-100835922D01*
X145543998Y-100959052D01*
X145540589Y-100963589D01*
X145426060Y-101000377D01*
X145215118Y-101019338D01*
X145164390Y-101020033D01*
X144897334Y-100981851D01*
X144726902Y-100851097D01*
X144712834Y-100831861D01*
X144590229Y-100547914D01*
X144575725Y-100242968D01*
X144656346Y-99962201D01*
X144819114Y-99750793D01*
X145051051Y-99653920D01*
X145051208Y-99653905D01*
X145320835Y-99636399D01*
X145482832Y-99667059D01*
X145564596Y-99777624D01*
X145593523Y-99999833D01*
X145597033Y-100286255D01*
X146162696Y-100286255D01*
X146147366Y-99199700D01*
X144482105Y-99199700D01*
X144235236Y-99476202D01*
G37*
X144235236Y-99476202D02*
X144094618Y-99655660D01*
X144020169Y-99833537D01*
X143991856Y-100075180D01*
X143988683Y-100280536D01*
X144039034Y-100781961D01*
X144192399Y-101150255D01*
X144453271Y-101390010D01*
X144826142Y-101505816D01*
X145194919Y-101513240D01*
X145597138Y-101485700D01*
X145597086Y-101972533D01*
X145597033Y-102459367D01*
X146193356Y-102459367D01*
X146170361Y-100829533D01*
X146162696Y-100286255D01*
X145597033Y-100286255D01*
X145589833Y-100595968D01*
X145570847Y-100835922D01*
X145543998Y-100959052D01*
X145540589Y-100963589D01*
X145426060Y-101000377D01*
X145215118Y-101019338D01*
X145164390Y-101020033D01*
X144897334Y-100981851D01*
X144726902Y-100851097D01*
X144712834Y-100831861D01*
X144590229Y-100547914D01*
X144575725Y-100242968D01*
X144656346Y-99962201D01*
X144819114Y-99750793D01*
X145051051Y-99653920D01*
X145051208Y-99653905D01*
X145320835Y-99636399D01*
X145482832Y-99667059D01*
X145564596Y-99777624D01*
X145593523Y-99999833D01*
X145597033Y-100286255D01*
X146162696Y-100286255D01*
X146147366Y-99199700D01*
X144482105Y-99199700D01*
X144235236Y-99476202D01*
G36*
X156535332Y-99771200D02*
G01*
X156564620Y-100001307D01*
X156630009Y-100112279D01*
X156764293Y-100154281D01*
X156787658Y-100157192D01*
X156986966Y-100239308D01*
X157101018Y-100433119D01*
X157145141Y-100621325D01*
X157086357Y-100740145D01*
X156980561Y-100818864D01*
X156833687Y-100925420D01*
X156787727Y-101021670D01*
X156838660Y-101163013D01*
X156942742Y-101339677D01*
X157060582Y-101515770D01*
X157156971Y-101568639D01*
X157295244Y-101521644D01*
X157354451Y-101491517D01*
X157531267Y-101416276D01*
X157652069Y-101441813D01*
X157789526Y-101570891D01*
X157914544Y-101721287D01*
X157928134Y-101834648D01*
X157841188Y-101990592D01*
X157758287Y-102135318D01*
X157772579Y-102228723D01*
X157905011Y-102329759D01*
X157977554Y-102374424D01*
X158232567Y-102508454D01*
X158391967Y-102530581D01*
X158485417Y-102442833D01*
X158499641Y-102410108D01*
X158555151Y-102033607D01*
X158445362Y-101628162D01*
X158252944Y-101304445D01*
X158054001Y-101009682D01*
X157871111Y-100705618D01*
X157791208Y-100554367D01*
X157627562Y-100215700D01*
X158597298Y-100191846D01*
X159567033Y-100167993D01*
X159567033Y-99411367D01*
X158038165Y-99411367D01*
X156509297Y-99411366D01*
X156535332Y-99771200D01*
G37*
X156535332Y-99771200D02*
X156564620Y-100001307D01*
X156630009Y-100112279D01*
X156764293Y-100154281D01*
X156787658Y-100157192D01*
X156986966Y-100239308D01*
X157101018Y-100433119D01*
X157145141Y-100621325D01*
X157086357Y-100740145D01*
X156980561Y-100818864D01*
X156833687Y-100925420D01*
X156787727Y-101021670D01*
X156838660Y-101163013D01*
X156942742Y-101339677D01*
X157060582Y-101515770D01*
X157156971Y-101568639D01*
X157295244Y-101521644D01*
X157354451Y-101491517D01*
X157531267Y-101416276D01*
X157652069Y-101441813D01*
X157789526Y-101570891D01*
X157914544Y-101721287D01*
X157928134Y-101834648D01*
X157841188Y-101990592D01*
X157758287Y-102135318D01*
X157772579Y-102228723D01*
X157905011Y-102329759D01*
X157977554Y-102374424D01*
X158232567Y-102508454D01*
X158391967Y-102530581D01*
X158485417Y-102442833D01*
X158499641Y-102410108D01*
X158555151Y-102033607D01*
X158445362Y-101628162D01*
X158252944Y-101304445D01*
X158054001Y-101009682D01*
X157871111Y-100705618D01*
X157791208Y-100554367D01*
X157627562Y-100215700D01*
X158597298Y-100191846D01*
X159567033Y-100167993D01*
X159567033Y-99411367D01*
X158038165Y-99411367D01*
X156509297Y-99411366D01*
X156535332Y-99771200D01*
G36*
X159331676Y-96752404D02*
G01*
X159216309Y-96798003D01*
X159171673Y-96913391D01*
X159160171Y-97010561D01*
X159108237Y-97211788D01*
X158973985Y-97305824D01*
X158906171Y-97322777D01*
X158702744Y-97318835D01*
X158540786Y-97185604D01*
X158522056Y-97161389D01*
X158366079Y-96953978D01*
X158039785Y-97137365D01*
X157841165Y-97257119D01*
X157766105Y-97348320D01*
X157788904Y-97462383D01*
X157832787Y-97551447D01*
X157904710Y-97726280D01*
X157873834Y-97842253D01*
X157785892Y-97932543D01*
X157647341Y-98085047D01*
X157652261Y-98199644D01*
X157805697Y-98328315D01*
X157825586Y-98341460D01*
X157948856Y-98410045D01*
X158060181Y-98416964D01*
X158208940Y-98350367D01*
X158444514Y-98198401D01*
X158457180Y-98189882D01*
X158978661Y-97929518D01*
X159512021Y-97827135D01*
X160032684Y-97876539D01*
X160516070Y-98071535D01*
X160937601Y-98405931D01*
X161272697Y-98873531D01*
X161288325Y-98903367D01*
X161428345Y-99206532D01*
X161492062Y-99459517D01*
X161498057Y-99752392D01*
X161489966Y-99880859D01*
X161452732Y-100195965D01*
X161379647Y-100467010D01*
X161249999Y-100742183D01*
X161043078Y-101069675D01*
X160878161Y-101304445D01*
X160646196Y-101729920D01*
X160577476Y-102129413D01*
X160634425Y-102410108D01*
X160717651Y-102521020D01*
X160860502Y-102522488D01*
X161092643Y-102412486D01*
X161156512Y-102374424D01*
X161332164Y-102258083D01*
X161382822Y-102168671D01*
X161329429Y-102047235D01*
X161292878Y-101990592D01*
X161205671Y-101833820D01*
X161219985Y-101720481D01*
X161344540Y-101570891D01*
X161489568Y-101436934D01*
X161611405Y-101418204D01*
X161779615Y-101491517D01*
X161942841Y-101563951D01*
X162045158Y-101543537D01*
X162149899Y-101406917D01*
X162191324Y-101339677D01*
X162314867Y-101124922D01*
X162344647Y-100998368D01*
X162276643Y-100904614D01*
X162153506Y-100818864D01*
X162014835Y-100703249D01*
X161993213Y-100572136D01*
X162034788Y-100428127D01*
X162134194Y-100242193D01*
X162292077Y-100176797D01*
X162369316Y-100173367D01*
X162520468Y-100161581D01*
X162592063Y-100095631D01*
X162613700Y-99929622D01*
X162615033Y-99792367D01*
X162607602Y-99558061D01*
X162565087Y-99447084D01*
X162457154Y-99413497D01*
X162363454Y-99411367D01*
X162180125Y-99383925D01*
X162081894Y-99267947D01*
X162039427Y-99136200D01*
X162006721Y-98929958D01*
X162064076Y-98803961D01*
X162142840Y-98740941D01*
X162285223Y-98643478D01*
X162343495Y-98603257D01*
X162333379Y-98520402D01*
X162261305Y-98356418D01*
X162159570Y-98170849D01*
X162060472Y-98023241D01*
X162001119Y-97972033D01*
X161873413Y-98008585D01*
X161754812Y-98063954D01*
X161605324Y-98105999D01*
X161458132Y-98033921D01*
X161383052Y-97967979D01*
X161251694Y-97822998D01*
X161237001Y-97698601D01*
X161301811Y-97550419D01*
X161366282Y-97403255D01*
X161346712Y-97306224D01*
X161217336Y-97208048D01*
X161094281Y-97137365D01*
X160767987Y-96953978D01*
X160612010Y-97161389D01*
X160450050Y-97310967D01*
X160254939Y-97327760D01*
X160227895Y-97322777D01*
X160057402Y-97250597D01*
X159984407Y-97089885D01*
X159973895Y-97010561D01*
X159946468Y-96846668D01*
X159873673Y-96769160D01*
X159706251Y-96745807D01*
X159567033Y-96744367D01*
X159331676Y-96752404D01*
G37*
X159331676Y-96752404D02*
X159216309Y-96798003D01*
X159171673Y-96913391D01*
X159160171Y-97010561D01*
X159108237Y-97211788D01*
X158973985Y-97305824D01*
X158906171Y-97322777D01*
X158702744Y-97318835D01*
X158540786Y-97185604D01*
X158522056Y-97161389D01*
X158366079Y-96953978D01*
X158039785Y-97137365D01*
X157841165Y-97257119D01*
X157766105Y-97348320D01*
X157788904Y-97462383D01*
X157832787Y-97551447D01*
X157904710Y-97726280D01*
X157873834Y-97842253D01*
X157785892Y-97932543D01*
X157647341Y-98085047D01*
X157652261Y-98199644D01*
X157805697Y-98328315D01*
X157825586Y-98341460D01*
X157948856Y-98410045D01*
X158060181Y-98416964D01*
X158208940Y-98350367D01*
X158444514Y-98198401D01*
X158457180Y-98189882D01*
X158978661Y-97929518D01*
X159512021Y-97827135D01*
X160032684Y-97876539D01*
X160516070Y-98071535D01*
X160937601Y-98405931D01*
X161272697Y-98873531D01*
X161288325Y-98903367D01*
X161428345Y-99206532D01*
X161492062Y-99459517D01*
X161498057Y-99752392D01*
X161489966Y-99880859D01*
X161452732Y-100195965D01*
X161379647Y-100467010D01*
X161249999Y-100742183D01*
X161043078Y-101069675D01*
X160878161Y-101304445D01*
X160646196Y-101729920D01*
X160577476Y-102129413D01*
X160634425Y-102410108D01*
X160717651Y-102521020D01*
X160860502Y-102522488D01*
X161092643Y-102412486D01*
X161156512Y-102374424D01*
X161332164Y-102258083D01*
X161382822Y-102168671D01*
X161329429Y-102047235D01*
X161292878Y-101990592D01*
X161205671Y-101833820D01*
X161219985Y-101720481D01*
X161344540Y-101570891D01*
X161489568Y-101436934D01*
X161611405Y-101418204D01*
X161779615Y-101491517D01*
X161942841Y-101563951D01*
X162045158Y-101543537D01*
X162149899Y-101406917D01*
X162191324Y-101339677D01*
X162314867Y-101124922D01*
X162344647Y-100998368D01*
X162276643Y-100904614D01*
X162153506Y-100818864D01*
X162014835Y-100703249D01*
X161993213Y-100572136D01*
X162034788Y-100428127D01*
X162134194Y-100242193D01*
X162292077Y-100176797D01*
X162369316Y-100173367D01*
X162520468Y-100161581D01*
X162592063Y-100095631D01*
X162613700Y-99929622D01*
X162615033Y-99792367D01*
X162607602Y-99558061D01*
X162565087Y-99447084D01*
X162457154Y-99413497D01*
X162363454Y-99411367D01*
X162180125Y-99383925D01*
X162081894Y-99267947D01*
X162039427Y-99136200D01*
X162006721Y-98929958D01*
X162064076Y-98803961D01*
X162142840Y-98740941D01*
X162285223Y-98643478D01*
X162343495Y-98603257D01*
X162333379Y-98520402D01*
X162261305Y-98356418D01*
X162159570Y-98170849D01*
X162060472Y-98023241D01*
X162001119Y-97972033D01*
X161873413Y-98008585D01*
X161754812Y-98063954D01*
X161605324Y-98105999D01*
X161458132Y-98033921D01*
X161383052Y-97967979D01*
X161251694Y-97822998D01*
X161237001Y-97698601D01*
X161301811Y-97550419D01*
X161366282Y-97403255D01*
X161346712Y-97306224D01*
X161217336Y-97208048D01*
X161094281Y-97137365D01*
X160767987Y-96953978D01*
X160612010Y-97161389D01*
X160450050Y-97310967D01*
X160254939Y-97327760D01*
X160227895Y-97322777D01*
X160057402Y-97250597D01*
X159984407Y-97089885D01*
X159973895Y-97010561D01*
X159946468Y-96846668D01*
X159873673Y-96769160D01*
X159706251Y-96745807D01*
X159567033Y-96744367D01*
X159331676Y-96752404D01*
G36*
X159080593Y-102388089D02*
G01*
X158755567Y-102428715D01*
X158596614Y-102488856D01*
X158480331Y-102603494D01*
X158493807Y-102688783D01*
X158646066Y-102747597D01*
X158946128Y-102782811D01*
X159403014Y-102797298D01*
X159567033Y-102798033D01*
X160079734Y-102789384D01*
X160427477Y-102763529D01*
X160608772Y-102720604D01*
X160633305Y-102700522D01*
X160642822Y-102568020D01*
X160490332Y-102468904D01*
X160180092Y-102404477D01*
X159716362Y-102376039D01*
X159567033Y-102374700D01*
X159080593Y-102388089D01*
G37*
X159080593Y-102388089D02*
X158755567Y-102428715D01*
X158596614Y-102488856D01*
X158480331Y-102603494D01*
X158493807Y-102688783D01*
X158646066Y-102747597D01*
X158946128Y-102782811D01*
X159403014Y-102797298D01*
X159567033Y-102798033D01*
X160079734Y-102789384D01*
X160427477Y-102763529D01*
X160608772Y-102720604D01*
X160633305Y-102700522D01*
X160642822Y-102568020D01*
X160490332Y-102468904D01*
X160180092Y-102404477D01*
X159716362Y-102376039D01*
X159567033Y-102374700D01*
X159080593Y-102388089D01*
G36*
X159083626Y-102974159D02*
G01*
X158752991Y-102997721D01*
X158558991Y-103042835D01*
X158485489Y-103114279D01*
X158516349Y-103216833D01*
X158554111Y-103267409D01*
X158647342Y-103326187D01*
X158828354Y-103364139D01*
X159124119Y-103384549D01*
X159561609Y-103390699D01*
X159567033Y-103390700D01*
X160006149Y-103384682D01*
X160303258Y-103364438D01*
X160485331Y-103326686D01*
X160579341Y-103268143D01*
X160579955Y-103267409D01*
X160647890Y-103151132D01*
X160617890Y-103067869D01*
X160473819Y-103012841D01*
X160199540Y-102981267D01*
X159778917Y-102968368D01*
X159567033Y-102967367D01*
X159083626Y-102974159D01*
G37*
X159083626Y-102974159D02*
X158752991Y-102997721D01*
X158558991Y-103042835D01*
X158485489Y-103114279D01*
X158516349Y-103216833D01*
X158554111Y-103267409D01*
X158647342Y-103326187D01*
X158828354Y-103364139D01*
X159124119Y-103384549D01*
X159561609Y-103390699D01*
X159567033Y-103390700D01*
X160006149Y-103384682D01*
X160303258Y-103364438D01*
X160485331Y-103326686D01*
X160579341Y-103268143D01*
X160579955Y-103267409D01*
X160647890Y-103151132D01*
X160617890Y-103067869D01*
X160473819Y-103012841D01*
X160199540Y-102981267D01*
X159778917Y-102968368D01*
X159567033Y-102967367D01*
X159083626Y-102974159D01*
G36*
X159544890Y-103492075D02*
G01*
X159263972Y-103514683D01*
X159037476Y-103554100D01*
X158918237Y-103607608D01*
X158912469Y-103617801D01*
X158950819Y-103733398D01*
X159115028Y-103834060D01*
X159361623Y-103905511D01*
X159647132Y-103933470D01*
X159836004Y-103921130D01*
X160052170Y-103849712D01*
X160191066Y-103730230D01*
X160216903Y-103600422D01*
X160185819Y-103552285D01*
X160058648Y-103508157D01*
X159827393Y-103488993D01*
X159544890Y-103492075D01*
G37*
X159544890Y-103492075D02*
X159263972Y-103514683D01*
X159037476Y-103554100D01*
X158918237Y-103607608D01*
X158912469Y-103617801D01*
X158950819Y-103733398D01*
X159115028Y-103834060D01*
X159361623Y-103905511D01*
X159647132Y-103933470D01*
X159836004Y-103921130D01*
X160052170Y-103849712D01*
X160191066Y-103730230D01*
X160216903Y-103600422D01*
X160185819Y-103552285D01*
X160058648Y-103508157D01*
X159827393Y-103488993D01*
X159544890Y-103492075D01*
M02*
